<?xml version="1.0" encoding="UTF-8"?><svg xmlns="http://www.w3.org/2000/svg" xmlns:xlink="http://www.w3.org/1999/xlink" viewBox="0 0 449.12 214.65"><defs><mask id="b" x="25.87" y="31.82" width="395.03" height="153.39" maskUnits="userSpaceOnUse"><g><path d="M246.99,183.21l-13.8-.72c-1.89-.16-3.21-1.6-3.21-3.44l2.7-52.04c.03-1.76,1.51-3.19,3.31-3.19h.13l11.76,.58c2.76-.86,5.48-1.3,8.08-1.3,13.86,0,25.13,10.62,25.13,23.68s-9.62,22.63-23.95,22.63c-2.05,0-4.09-.2-6.07-.6l-.54,11.18c-.17,1.84-1.62,3.22-3.31,3.22h-.23Zm4.94-31.34c.99,.3,2.03,.47,2.99,.47,4.72,0,5.23-3.84,5.23-5.49,0-3.43-2.69-5.82-6.54-5.82-.35,0-.72,.02-1.11,.07l-.56,10.77Zm-45.31,30.82c-1.97,0-3.58-1.6-3.58-3.58v-51.32c0-1.97,1.6-3.58,3.58-3.58h14.52c1.97,0,3.58,1.6,3.58,3.58v51.32c0,1.97-1.6,3.58-3.58,3.58h-14.52Zm137.41-1.79c-.95,0-1.79-.13-2.47-.39l-7.32-2.6c-.68,.55-1.59,.89-2.65,.95l-22.17,.86h-.41c-2.91,0-3.5-2.01-3.61-2.63l-.24-1.16c-.98,1.46-2.65,2.28-4.63,2.28-.69,0-1.35-.09-1.99-.27l-8.87-2.84c-1.55-.52-2.51-1.82-2.51-3.42,0-.35,0-.93,.34-1.62,2.09-4.12,3.33-12.51,3.4-15.19l.46-27.77c.17-7.77,4.9-10.69,8.89-10.84l39.97-1.12h.45c6.28,0,9.72,3.28,9.95,9.48l.2,5.26v.27c0,2.06-.8,3.66-2.2,4.58,.77,.58,1.08,1.49,1.08,2.32l-.07,1.54c0,.28-.06,.95-.52,1.55,.27,.44,.4,.94,.4,1.45v.27l-.22,1.58c-.08,.62-.36,1.28-.91,1.75,1.91,1.27,2.44,3.14,2.44,4.81,0,.23-.02,.44-.05,.64v.1s-.01,.1-.01,.1l-.54,5.34c-.12,1.12-.65,1.98-1.39,2.58,3.69,1.45,4.16,4.49,4.16,5.96,0,.21-.02,.43-.05,.64,0,.05-.02,.11-.02,.16v.22s-.8,6.7-.8,6.7c-.28,2.14-2.01,5.04-3.58,6.81-.95,1.06-2.6,1.66-4.52,1.66Zm-37.39-9.03l.05-.02s-.02-.04-.03-.06l-.02,.08Zm28.26-6.75c.36,.59,.58,1.34,.61,2.28l.33-2.22-.94-.06Zm-26.25-7.91l.08-.07s-.05-.08-.08-.12c0,.06,0,.13,0,.19Zm96.42,21.85l-17.74-1.12c-5.73-.39-8.51-3.19-8.51-8.57v-.39c-.43,.3-.95,.52-1.55,.64l-16.98,3.06c-.38,.06-.77,.13-1.22,.13-2.42,0-4.14-1.42-4.59-3.79l-1.55-8.21v-.11c-.05-.26-.07-.45-.07-.6,0-.8,.28-2.72,2.92-3.16l3.74-.5-.24-9.56-1.96-.1c-1.94-.15-3.21-1.53-3.21-3.44v-.2l.4-9.02c.15-1.92,1.36-3.03,3.25-3.03h.26l.98,.04-.22-10.09c0-.84,.26-3.42,3.58-3.42l10.04,.26c1.98,0,3.46,1.45,3.46,3.44l.17,10.56c.3,.03,.57,.07,.82,.14,.48-1.02,1.46-1.73,2.68-1.84l.41-.04,.27-8.81c0-1.75,1.4-3.12,3.25-3.12h.25s8.94,.53,8.94,.53c1.54,.13,2.66,.97,3.05,2.18l.1-1.87c.16-1.82,1.36-2.95,3.05-2.95h.26l9.13,.6c1.8,.18,3.05,1.51,3.05,3.18v.25s-.46,7.48-.46,7.48c3.2,.11,8.08,1.62,8.08,9.68v1.18l-.92,15.7c-.16,2.49-1.38,5.55-2.46,7.59-.22,.41-.48,.76-.79,1.07,1.17,.33,1.99,1.25,2.12,2.5l1,7.65v.59c0,2.27-1.2,3.95-3.14,4.38-2.5,.66-5.9,1.1-8.58,1.1h-1.05Zm-.33-15.3c1.13,0,2.63-.14,4.14-.33l-4.14-2.13c-.73-.4-1.22-.85-1.53-1.31-.55,.39-1.22,.61-1.96,.61h-.2l-3.95-.27c-1.18-.08-2.07-.57-2.57-1.39l-.15,4.17,9.69,.65h.66Zm-27.47-9.66c.77,0,1.44,.23,1.96,.63l.25-8.68c-.35-.11-.67-.27-.95-.48-.39,1.04-1.17,1.74-2.2,1.98l.08,6.59,.39-.05h.46Zm-266.98,22.97c-.84,0-1.6-.33-1.88-.48l-.12-.06-7.62-4.47c-.67-.37-1.2-.94-1.53-1.62-.03,.03-7.11,5.25-7.11,5.25-.63,.47-1.65,1.05-2.83,1.05s-2.35-.63-3.15-1.77l-3.82-5.25c-.44-.55-.73-1.23-.83-1.95-.1,.06-.21,.11-.32,.15l-3.35,1.42c-.52,.24-1.02,.24-1.27,.24-.2,0-.4-.02-.59-.06-.29,1.22-1.2,2.19-2.4,2.5l-4.71,1.05c-.45,.13-.78,.13-.97,.13-1.18,0-2.17-.53-2.76-1.43l-.4,1.23c-.53,1.58-2,2.63-3.68,2.63-.49,0-.97-.13-1.29-.23l-6.57-1.95c-1.45-.43-2.42-1.76-2.42-3.3,0-.49,.13-.97,.24-1.29l.05-.13,2.57-6.19c-.77-.47-1.34-1.32-1.46-2.32l-.74-5.24v-.47c0-1.54,1.06-2.62,2.58-2.66l1.12-.07-1.69-1.94c-1.16-1.32-1.74-2.82-1.74-4.47,0-1.75,.75-3.25,1.39-4.2l1.37-2.02c-1.06-.67-1.76-1.79-1.83-3.13l-.92-19.07v-.23c0-2.24,1.56-3.91,3.89-4.16l21.81-1.72h.8c2.77,0,4.95,1.06,6.33,2.94,.58-.84,1.56-1.3,2.87-1.3,0,0,25.83-.79,25.83-.79,3.32,0,3.57,2.54,3.57,3.31l.26,8.48c0,2.7-1.78,3.64-3.44,3.64l-6.79,.16-.14,1.38,1.23,.05c4.99,.17,8.62,3.91,8.62,8.9l-.33,21.12c0,.88-.21,1.81-.61,2.71l.9,.5c.74,.44,1.33,1.1,1.7,1.85,.07-.35,.18-.69,.33-1l4.19-8.9c.62-1.37,1.97-2.2,3.58-2.2,.35,0,.98,0,1.62,.28l9.98,3.72c1.48,.49,2.48,1.94,2.48,3.65,0,.62-.13,1.21-.37,1.73l-3.26,8.09c-.66,1.65-2.36,2.76-4.22,2.76-.43,0-.88-.08-1.35-.23l-10.16-3.21c-1.11-.37-1.98-1.14-2.47-2.1-.07,.33-.18,.65-.33,.96l-4.39,7.71c-.76,1.27-2.04,2-3.45,2Zm-10.23-11.44l.06-.11h-.14s.05,.07,.08,.11Zm-33.75-25.25c.16,.06,.28,.12,.37,.16l.16,.08,1.55,1.15c.15-.37,.32-.71,.52-1.03l1-1.55-3.58,.16c.02,.16,.03,.32,.03,.49,0,.19-.02,.37-.05,.53Zm19.1,.98l.04-4.83c-.8,1.23-2.08,1.92-3.41,2.11,.01,.11,.02,.23,.02,.35,0,.07,0,.15,0,.22,.34,.1,.67,.27,.94,.5l2.41,1.65Zm.81-11.32c.76-1.26,2.05-2.06,3.57-2.06h.08l.02-.27-1.88,.06h-.33c-.37,0-.94-.05-1.5-.28l.04,2.54Zm66.52,46.5c-.52,0-.98-.09-1.35-.17l-11.68-2.51c-1.76-.35-2.96-1.72-2.96-3.4,0-.76,.23-1.55,.71-2.42,2.7-4.9,3.1-6.56,3.1-7.11v-.13l-.38-9.15s-18.24-.48-18.24-.48c-1.9,0-3.26-1.42-3.26-3.45v-.2l.4-9.48c.11-2.04,1.43-3.3,3.44-3.3l56.02,1.05c1.85,0,3.21,1.48,3.21,3.51l-.4,10c-.14,1.97-1.53,3.3-3.38,3.3l-1.87-.05c.8,.44,1.47,1.18,1.91,2.14l3.42,7.57c.37,.74,.57,1.51,.57,2.27s-.27,2.63-2.77,3.63l-10.03,3.76c-.53,.21-1.11,.32-1.69,.32-1.79,0-3.41-1.1-3.93-2.68l-2.48-7.83v.43c0,3.05-1.16,7.19-3.1,11.08-1.02,2.05-3,3.28-5.27,3.28Zm8.15-18.74c.43-1.07,1.3-1.91,2.43-2.25l9.26-3.07-12.01-.32,.32,5.64Zm-33.65-26.6c-2,0-3.37-1.3-3.51-3.31l-.46-10.29v-.22c0-2.07,1.39-3.51,3.38-3.51l45.13-1.71h.21c1.99,0,3.38,1.39,3.38,3.38l.46,10.49v.22c0,1.93-1.48,3.45-3.38,3.45l-45.17,1.51h-.03Zm281.32-16.03c-.67,0-1.27-.13-1.79-.39l-4.58-2.27c-.28-.14-.53-.31-.75-.49-.77,1.28-2.2,2.08-3.8,2.08-.61,0-1.28-.16-1.83-.43l-2.18-1.09c-.54,.55-1.31,.89-2.22,.94l-4,.27h-.07c-1.5,0-2.64-1.04-2.86-2.5-.63,1.29-1.95,2.1-3.55,2.1-.42,0-.79-.07-1.06-.13l-5.43-1.36c-1.33-.33-2.23-1.49-2.23-2.88,0-.18,0-.48,.1-.85,.72-3.45,1.19-7.33,1.38-11.33-.03,0-9.49-2.24-9.49-2.24-1.44-.39-2.3-1.46-2.3-2.79,0-.38,.07-.77,.21-1.21l-8.91-.16c0,.09,.01,.17,.01,.26,0,1.28-.78,2.36-2.03,2.81l-8.96,3.17c-.61,.2-1.23,.38-1.87,.38-1.3,0-2.39-.64-3-1.75l-3.22-6.18c-.32-.55-.49-1.16-.49-1.77,0-1.33,.83-2.38,2.21-2.8l2.43-.71,.62-16.77c.04-1.4,.54-2.54,1.39-3.33l-.82,.02c-1.69,0-2.98-1.31-2.98-2.98l-.22-5.75v-.13c0-1.65,1.3-2.89,3.02-2.89l35.57-.76c1.77,0,3.07,1.26,3.07,2.93l.22,5.76c0,1.8-1.26,3.1-2.93,3.1l-10.52,.2,3.55,.12c4.89,.18,7.81,3.15,7.81,7.96v.64s-.05,.92-.05,.92c.3-.09,.62-.14,.96-.14l6.5,.13c.24,0,.47,.03,.69,.09,.11-1.16,.85-2.34,2.67-2.49l3.66-.18h.23c1.68,0,2.85,1.19,2.85,2.89l.17,7.4,.1-2.07c.31-5.45,4.05-7.38,7.16-7.38h.22l13.87,.49c2.2,.15,2.95,1.65,2.95,2.89l-.18,6.86c0,1.57-1.29,2.84-2.93,2.84h-.19s-8.35-.42-8.35-.42l-.1,2.07,5.83,.64c3.6,.39,5.83,3.22,5.83,7.37,0,.46-.04,.9-.09,1.33v.12c-.25,1.85-.78,4.32-1.46,6.85l.73,.39,.06,.04c1.07,.67,1.61,1.55,1.61,2.63,0,.26,0,.75-.27,1.32l-1.88,4.38-.03,.05c-.5,1.01-1.53,1.64-2.68,1.64-.45,0-.86-.08-1.26-.25-.01,.02-.24,.48-.24,.48-.75,1.42-2.28,2.31-3.92,2.31Zm-19.77-20.96c1.85,0,3.29,.72,4.19,2.02,0,0,.11-2.12,.11-2.12-.07,0-.13,0-.2,0l-6.66,.07v.16s2.1-.13,2.1-.13h.46Zm-28.05-18.37l.04-.75-.24,.71c.07,.01,.13,.03,.2,.04Zm-33.22,30.11c-.47,0-.96-.09-1.4-.25l-4.94-1.68c-1.14-.38-1.89-1.39-1.89-2.56,0-.33,.05-.65,.16-.96l-2.27,.16h-.34c-.88,0-1.8-.23-2.55-.79l-.03,1.33c-.15,3.09-2.45,3.33-3.16,3.33l-3.92,.09c-1.68,0-2.78-.89-3.02-2.38-.5,.74-1.3,1.2-2.3,1.26l-6.08,.27h-.22c-1.59,0-2.74-1.02-2.91-2.54-.02,0-.31,0-.31,0l-2.63-.13c-1.73-.12-2.83-1.23-2.83-2.84v-.34l.55-4.7c.14-.99,.6-1.75,1.27-2.2-.46-.44-.76-1.03-.86-1.73l-.69-4.42c-.02-.11-.04-.27-.04-.45,0-1.16,.71-2.58,2.73-2.75l1.11-.08,.89-1.12-2-1.77c-1.42-1.3-2.19-2.99-2.19-4.79,0-1.11,.31-2.22,.91-3.21l4.77-7.89c.49-.81,1.4-1.32,2.38-1.32,.23,0,.83,0,1.44,.38l5.14,2.99c.88,.48,1.43,1.4,1.43,2.42,0,.56-.16,1.08-.47,1.55l-.9,1.31c.58,.05,1.14,.3,1.56,.69l1.01,.89,.18-6.59c.09-2.41,1.64-4.08,3.78-4.08l17.09-.04c4.25,0,6.99,3.18,6.99,8.1l-.27,28.38c0,2.34-1.45,5.51-1.89,6.42-.64,1.28-1.89,2.06-3.27,2.06ZM49.25,96.04c-.71,0-17.43-.09-18.91-7.52l-.03-.14-2.44-47.03v-.13c0-1.88,1.54-3.41,3.44-3.44l7.26-.44c4.06-1.58,9.01-2.45,13.98-2.45,16.68,0,24.14,9.45,24.14,18.82,0,4.6-1.95,8.1-4.03,10.52,1.26,1.2,2.44,2.65,3.29,4.68,1.19,2.73,1.8,5.41,1.8,7.93,0,12.61-14.33,19.22-28.48,19.22Zm1.12-16.11c.24,.01,.48,.02,.72,.02,3.77,0,6.41-1.39,6.41-3.39,0-.79,0-3.19-6.08-3.19-.48,0-.94,0-1.39,.03l.34,6.53Zm-1.06-20.67c3.68-.31,7.21-1.19,7.21-3.99,0-2.41-2.25-3.85-6.02-3.85-.54,0-1.07,.03-1.59,.08l.4,7.76Zm134.45,36.64c-2.92,0-5.87-.52-8.78-1.56l-10.67,.57c-1.81,0-3.29-1.35-3.44-3.15l-2.77-53.85v-.13c0-1.68,1.34-3.13,3.05-3.3l13.24-.66h.23c1.72,0,3.14,1.34,3.31,3.13l.8,15.69c1.95-.42,3.99-.62,6.08-.62,13.69,0,22.9,8.65,22.9,21.52s-10.74,22.37-23.95,22.37Zm-3.61-16.57c.42,.06,.85,.09,1.31,.09,3.58,0,6.08-2.31,6.08-5.62,0-1.24-.34-5.29-4.77-5.29-1,0-2.11,.21-3.18,.6l.56,10.23Zm86.66,15.59c-1.72,0-3.14-1.35-3.31-3.13l-1.65-32.18c0-1.62,1.02-2.93,2.51-3.33-3.03-2.11-5.01-5.6-5.01-9.55,0-6.46,5.26-11.72,11.72-11.72s11.66,5.26,11.66,11.72c0,3.5-1.55,6.65-4.01,8.79,1.61,.15,2.92,1.54,2.96,3.17l1.64,32.13v.13c0,1.68-1.34,3.13-3.05,3.3l-13.29,.67h-.18Zm-51.25,0c-1.72,0-3.14-1.35-3.31-3.13l-1.65-32.18c0-1.62,1.02-2.93,2.51-3.33-3.02-2.11-5.01-5.61-5.01-9.55,0-6.46,5.26-11.72,11.72-11.72s11.66,5.26,11.66,11.72c0,3.5-1.55,6.65-4.01,8.79,1.61,.15,2.92,1.54,2.96,3.17l1.64,32.13v.13c0,1.68-1.34,3.13-3.05,3.3l-13.29,.67h-.18Zm-77.21,0c-1.72,0-3.15-1.35-3.31-3.13l-1.65-32.18c0-1.62,1.02-2.93,2.51-3.33-3.03-2.11-5.01-5.6-5.01-9.55,0-6.46,5.26-11.72,11.72-11.72s11.66,5.26,11.66,11.72c0,3.5-1.55,6.65-4.01,8.79,1.61,.15,2.92,1.54,2.96,3.17l1.64,32.13v.13c0,1.68-1.34,3.13-3.05,3.3l-13.29,.67h-.18Zm-51.25,0c-1.72,0-3.14-1.35-3.31-3.13l-1.65-32.18c0-1.62,1.02-2.93,2.51-3.33-3.03-2.11-5.01-5.6-5.01-9.55,0-6.46,5.26-11.72,11.72-11.72s11.66,5.26,11.66,11.72c0,3.5-1.55,6.65-4.01,8.79,1.61,.15,2.92,1.54,2.96,3.17l1.64,32.13v.13c0,1.68-1.34,3.13-3.05,3.3l-13.29,.67h-.18Zm152.58-.39c-1.83,0-3.31-1.49-3.31-3.31V37.53c0-1.86,1.49-3.38,3.31-3.38h13.21c1.83,0,3.31,1.52,3.31,3.38v53.68c0,1.83-1.49,3.31-3.31,3.31h-13.21Zm-128.46,0c-1.83,0-3.31-1.49-3.31-3.31V37.53c0-1.86,1.49-3.38,3.31-3.38h13.21c1.83,0,3.31,1.52,3.31,3.38v53.68c0,1.83-1.49,3.31-3.31,3.31h-13.21Z" style="fill:#fff;"/><path d="M174.63,35.82c.72,0,1.25,.59,1.31,1.31l.92,18.07c2.5-.79,5.19-1.18,7.95-1.18,12.62,0,20.9,7.69,20.9,19.52s-10.45,20.37-21.95,20.37c-2.82,0-5.65-.53-8.48-1.58l-10.97,.59c-.72,0-1.38-.53-1.45-1.31l-2.76-53.68v-.13c0-.66,.59-1.25,1.25-1.31l13.14-.66h.13m6.83,45.6c4.6,0,8.08-3.15,8.08-7.62,0-2.83-1.38-7.29-6.77-7.29-1.91,0-3.81,.59-5.26,1.31l.72,13.14c1.12,.33,2.17,.46,3.22,.46m71.43-45.27c.72,0,1.31,.59,1.31,1.38v53.68c0,.72-.59,1.31-1.31,1.31h-13.21c-.72,0-1.31-.59-1.31-1.31V37.53c0-.79,.59-1.38,1.31-1.38h13.21m-128.46,0c.72,0,1.31,.59,1.31,1.38v53.68c0,.72-.59,1.31-1.31,1.31h-13.21c-.72,0-1.31-.59-1.31-1.31V37.53c0-.79,.59-1.38,1.31-1.38h13.21m-71.89,.72c15.57,0,22.14,8.48,22.14,16.82,0,4.4-2.1,8.02-4.93,10.64,1.84,1.51,3.35,2.96,4.34,5.32,1.12,2.56,1.64,4.99,1.64,7.16,0,11.17-13.34,17.22-26.48,17.22-3.68,0-15.97-.99-16.95-5.91l-2.43-46.78v-.13c0-.79,.66-1.45,1.51-1.45l7.62-.46c3.75-1.51,8.61-2.43,13.54-2.43m-5.12,24.51c3.22-.13,11.1-.46,11.1-6.11,0-3.02-2.37-5.85-8.02-5.85-1.25,0-2.5,.13-3.68,.39l.59,11.56m3.68,20.57c4.86,0,8.41-2.1,8.41-5.39s-2.82-5.19-8.08-5.19c-1.25,0-2.43,.07-3.48,.2l.53,10.18c.92,.13,1.77,.2,2.63,.2m220-44.94c5.32,0,9.66,4.34,9.66,9.72s-4.34,9.66-9.66,9.66-9.72-4.34-9.72-9.66,4.34-9.72,9.72-9.72m-51.25,0c5.32,0,9.66,4.34,9.66,9.72s-4.34,9.66-9.66,9.66-9.72-4.34-9.72-9.66,4.34-9.72,9.72-9.72m-77.21,0c5.32,0,9.66,4.34,9.66,9.72s-4.34,9.66-9.66,9.66-9.72-4.34-9.72-9.66,4.34-9.72,9.72-9.72m-51.25,0c5.32,0,9.66,4.34,9.66,9.72s-4.34,9.66-9.66,9.66-9.72-4.34-9.72-9.66,4.34-9.72,9.72-9.72m283.57,16.25c.62,0,1.02,.36,1.02,.93l.22,5.83c0,.58-.31,1.02-.93,1.02l-16.16,.31-.4,3.69,9.53,.31c3.7,.13,5.88,2.18,5.88,5.97v.53l-.71,13.44,2.57,.45-.14,8.68c-.27,.34-.69,.48-1.14,.48-.18,0-.36,0-.53-.04l-9.44-2.23c-.49-.13-.76-.4-.76-.85,0-.18,.04-.4,.13-.67l.98-2.49-14.82-.27,.8,1.6c.13,.22,.22,.49,.22,.71,0,.4-.22,.76-.71,.93l-8.95,3.16c-.4,.13-.85,.27-1.2,.27-.53,0-.98-.22-1.25-.71l-3.2-6.14c-.18-.31-.27-.58-.27-.85,0-.4,.22-.71,.8-.89l3.78-1.11,.67-18.21c.04-1.65,.98-2.58,2.72-2.58h.13l3.29,.09,.49-3.07-8.1,.18c-.62,0-.94-.49-.94-.98l-.22-5.79v-.09c0-.62,.49-.89,1.02-.89l35.62-.76m-17.81,23.02l-6.5-.49-.09,2.54,9.35-.58h.13c.4,0,.62,.18,.62,.62,0,.09,0,.18-.04,.31l-.27,1.51c-.09,.49-.44,.85-1.29,.89l-8.59,.53-.09,1.83,11.93,.4,.62-10.95v-.13c0-1.02-.49-1.74-1.25-1.78l-10.82-.71-.09,2.18,7.57,.62c.58,.04,.8,.27,.8,.58,0,.09-.04,.22-.09,.36l-.53,1.56c-.18,.53-.53,.71-1.16,.71h-.22m-78.68-18.77c.66,0,1.25,.59,1.25,1.25l1.64,32.07v.13c0,.66-.59,1.25-1.25,1.31l-13.14,.66h-.13c-.72,0-1.25-.59-1.31-1.31l-1.64-32c0-.79,.52-1.38,1.31-1.45l13.14-.66h.13m-51.25,0c.66,0,1.25,.59,1.25,1.25l1.64,32.07v.13c0,.66-.59,1.25-1.25,1.31l-13.14,.66h-.13c-.72,0-1.25-.59-1.31-1.31l-1.64-32c0-.79,.52-1.38,1.31-1.45l13.14-.66h.13m-77.21,0c.66,0,1.25,.59,1.25,1.25l1.64,32.07v.13c0,.66-.59,1.25-1.25,1.31l-13.14,.66h-.13c-.72,0-1.25-.59-1.31-1.31l-1.64-32c0-.79,.53-1.38,1.31-1.45l13.14-.66h.13m-51.25,0c.66,0,1.25,.59,1.25,1.25l1.64,32.07v.13c0,.66-.59,1.25-1.25,1.31l-13.14,.66h-.13c-.72,0-1.25-.59-1.31-1.31l-1.64-32c0-.79,.53-1.38,1.31-1.45l13.14-.66h.13m227.24,5.48c3.03,0,4.99,2.14,4.99,6.1v.13l-.27,28.22c0,1.56-.94,4.01-1.69,5.57-.31,.62-.89,.93-1.47,.93-.22,0-.49-.04-.71-.13l-4.99-1.69c-.27-.09-.53-.31-.53-.67,0-.18,.04-.36,.18-.58,.67-1.34,1.6-3.25,1.65-4.54l.44-23.06c0-1.02-.58-1.74-1.51-1.74l-9.04-.13-.76,29.74c-.04,.89-.31,1.38-1.16,1.38l-3.96,.09c-.67,0-1.02-.18-1.02-1.02v-.18l.18-6.19-1.47,1.11c-.09,.09-.22,.09-.36,.09-.22,0-.53-.13-.67-.36l-1.11-1.83,.04,6.01c0,.62-.22,1.2-.98,1.25l-6.05,.27h-.13c-.67,0-.93-.36-.93-.93l.09-11.35-3.65,.36h-.13c-.58,0-1.02-.22-1.11-.85l-.67-4.27c0-.13-.04-.22-.04-.31,0-.53,.36-.71,.89-.76l1.96-.13,2.63-3.29-3.43-3.03c-1.02-.93-1.51-2.09-1.51-3.29,0-.76,.22-1.51,.62-2.18l4.76-7.88c.13-.22,.4-.36,.67-.36,.13,0,.27,0,.4,.09l5.21,3.03c.27,.13,.4,.4,.4,.67,0,.18-.04,.31-.13,.45l-4.18,6.1,1.78,1.56,2.31-2.94c.18-.22,.4-.31,.62-.31,.13,0,.31,.04,.44,.18l2.98,2.63c.22,.18,.36,.45,.36,.71,0,.13-.04,.31-.18,.45l-6.68,6.95,3.56-.27-.09-1.42v-.13c0-.31,.13-.53,.49-.53l1.29-.13h.13c.53,0,.76,.22,.76,.67l.13,5.65v.09c0,.98-.62,1.6-1.42,1.69l-1.25,.13,.04,3.52,1.69-1.02c.13-.09,.27-.13,.4-.13,.27,0,.49,.18,.71,.4l.85,1.07,.76-27.42c.04-1.25,.67-2.14,1.78-2.14l17.1-.04m64.79,9.31c.53,0,.85,.27,.85,.89l.27,11.53h.98c.58,0,.76,.22,.76,.8l.04,5.74c0,.58-.18,.85-.76,.85l-8.64,.09-.04,3.74v.53l4.18-.27h.4c2.23,0,3.16,1.42,3.25,3.65l.27,6.28c1.47-3.34,2.54-7.52,2.67-9.79l.89-17.72c.22-3.96,2.67-5.48,5.16-5.48h.22l13.8,.49c.67,.04,1.02,.27,1.02,.89l-.18,6.81c0,.53-.4,.89-.93,.89h-.09l-8.9-.45h-.18c-.71,0-1.29,.27-1.34,1.25l-.22,4.63,7.7,.85c2.85,.31,4.05,2.58,4.05,5.39,0,.4-.04,.8-.09,1.25-.27,2.05-.93,5.03-1.82,8.06l2.09,1.11c.36,.22,.67,.49,.67,.93,0,.18,0,.31-.09,.49l-1.87,4.36c-.18,.36-.53,.53-.89,.53-.22,0-.4-.04-.58-.13l-1.6-.85c-.36,.85-.76,1.6-1.11,2.31-.4,.76-1.29,1.2-2.14,1.2-.31,0-.62-.04-.89-.18l-4.58-2.27c-.36-.18-.62-.45-.62-.85,0-.22,.09-.45,.22-.71,.67-1.16,1.25-2.31,1.78-3.43l-2.18-1.16c-.67,2.27-1.51,4.45-2.45,6.23-.45,.89-1.34,1.29-2.18,1.29-.31,0-.67-.09-.94-.22l-4.27-2.14,.05,.58v.13c0,.49-.27,1.02-1.16,1.07l-3.96,.27h-.09c-.45,0-.76-.36-.8-.89l-.36-8.37c-.04-.71-.22-.93-.58-.93h-.09l-1.56,.09c-.22,2.49-.53,5.39-1.02,8.24-.18,1.02-1.02,1.47-1.91,1.47-.22,0-.45-.04-.67-.09l-5.34-1.34c-.36-.09-.71-.4-.71-.93,0-.13,0-.22,.05-.36,1.29-6.14,1.47-11.89,1.51-13.93v-.28c.09-.1,.15-.23,.21-.37l2.45-6.28c.09-.27,.13-.49,.13-.71,0-.53-.31-.93-.94-1.02l-1.71-.3,.17-10.17c0-.58,.36-.85,.89-.85l6.46,.13c.53,0,.89,.45,.89,1.02l-.04,8.9h2.27l-.4-11.4v-.13c0-.58,.27-.76,.85-.8l3.61-.18h.13m15.89,27.87c.45-1.34,.8-2.63,1.07-3.78,.04-.22,.09-.49,.09-.71,0-.58-.22-1.07-.94-1.16l-2.94-.36-.13,2.4-.22,2.09,3.07,1.51m-87.36-26.59c.09,0,.18,0,.27,.04l2.49,.85c.27,.09,.44,.4,.44,.71,0,.04-.04,.13-.04,.22l-1.34,4.14,.94,.04c.27,.04,.53,.27,.53,.53v.09l-.31,4.1c-.04,.45-.31,.67-.71,.67l-7.3-.4c-.31,0-.58-.22-.58-.58l.27-4.45c0-.36,.27-.49,.58-.49l2.94,.22,1.29-5.3c.05-.27,.27-.4,.53-.4m-3.07,.58c.27,0,.45,.22,.49,.4l.45,2.54c0,.09,.04,.18,.04,.27,0,.27-.13,.45-.4,.53l-1.51,.4c-.09,.04-.18,.04-.27,.04-.22,0-.4-.09-.44-.36l-.62-2.72c0-.09-.04-.18-.04-.27,0-.27,.13-.45,.44-.49l1.74-.36h.13m3.16,11.53c.31,0,.53,.13,.53,.49l.13,1.69,1.51-.09h.13c.36,0,.53,.13,.53,.53l.13,2.98v.13c0,.49-.22,.62-.58,.67l-2.23,.13,.05,1.78c0,.49,.09,.67,.53,.67h.13l1.51-.09c.36,0,.49,.18,.49,.62l-.04,2.27c0,.4-.18,.8-.67,.85l-4.45,.31h-.27c-1.51,0-2.23-.98-2.27-2.67l-.04-3.43-.62,.04h-.13c-.31,0-.53-.18-.53-.62l-.09-3.03c0-.45,.18-.62,.62-.67l1.11-.09-.13-1.47v-.09c0-.4,.22-.53,.53-.58l3.96-.36h.13m-29.12,6.86c.13,0,.22,0,.36,.04l2.63,.53c.58,.13,.76,.4,.76,.89v.18l-.44,4.23c-.04,.58-.4,.8-.98,.8h-.13l-2.63-.13c-.67-.04-.94-.31-.94-.85v-.22l.53-4.59c.09-.62,.4-.89,.85-.89m-212.17,20.29c3.61,0,5.91,2.3,5.98,6.51l.2,14.19c0,2.3-1.51,3.09-2.83,3.15l-3.48,.13,1.91,1.58c.13,.13,.2,.33,.2,.59,0,.2-.07,.39-.13,.53l-3.88,4.99,1.45,1.71,3.35-4.86c.13-.2,.26-.26,.46-.26,.13,0,.33,.07,.46,.2l3.35,2.3c.13,.07,.2,.33,.2,.59,0,.33-.07,.66-.2,.79l-5.78,6.77,3.09-.13,.07-1.45c0-.33,.2-.59,.46-.59l2.17,.07c.39,.07,.59,.2,.59,.66l-.13,5.59c0,.85-.66,1.64-1.51,1.71l-12.02,.59h-.07c-.46,0-.79-.52-.85-1.05l-.39-4.21v-.2c0-.59,.26-.72,.66-.72l1.05-.07,1.05-1.51-2.76-3.29c-.59-.72-.85-1.71-.85-2.69,0-.92,.26-1.91,.72-2.63l3.09-4.8-11.57,.52,1.91,1.38c.2,.13,.33,.52,.33,.92,0,.2-.07,.39-.13,.53l-3.88,5.12,1.38,1.91,3.02-4.86c.13-.2,.39-.33,.66-.33,.13,0,.26,.07,.39,.13l3.61,2.69c.13,.13,.2,.33,.2,.59s-.07,.46-.2,.66l-6.18,7.1,3.22-.2-.13-1.71v-.13c0-.26,.13-.46,.39-.46l2.1-.13h.2c.26,0,.46,.13,.46,.59l.26,6.64v.2c0,1.12-.53,1.71-1.38,1.77l-13.27,.99h-.13c-.46,0-.85-.46-.92-.99l-.72-5.13v-.33c0-.53,.26-.66,.66-.66l2.1-.13,1.51-2.04-2.76-3.15c-.92-1.05-1.25-2.1-1.25-3.15,0-1.18,.53-2.3,1.05-3.09l3.02-4.47h-.92c-1.25,0-2.17-.72-2.23-1.91l-.92-19.06v-.13c0-1.25,.85-2.04,2.1-2.17l21.68-1.71h.72m-9.79,16.23l-4.21-.26,.07,3.35,7.69-.39v-8.15c0-1.12-.39-1.91-1.38-1.91h-.13l-6.44,.46,.07,3.09,5.39,.39c.59,.07,.72,.53,.72,.85v.13l-.46,1.45c-.26,.66-.46,.99-1.12,.99h-.2m44.88-15.38c1.05,0,1.51,.33,1.51,1.31l.26,8.54c0,.92-.26,1.58-1.45,1.58l-8.61,.2-.53,5.26,3.35,.13c3.88,.13,6.7,3.02,6.7,6.9v.13l-.33,20.96c0,1.25-.59,2.5-1.38,3.48l2.69,1.51c.66,.39,1.12,1.18,1.12,1.97,0,.26-.07,.53-.2,.79l-4.34,7.62c-.39,.66-1.05,.99-1.71,.99-.33,0-.72-.13-.99-.26l-7.62-4.47c-.59-.33-.92-.92-.92-1.51,0-.33,.07-.66,.26-.92l2.56-4.27-8.35-.26,3.09,3.29c.2,.26,.33,.53,.33,.79,0,.53-.33,1.12-.79,1.45l-7.03,5.19c-.53,.39-1.12,.66-1.64,.66s-1.05-.26-1.51-.92l-3.88-5.32c-.33-.39-.46-.92-.46-1.31,0-.53,.2-.99,.66-1.25l4.93-2.83c-1.05-.26-1.71-.92-1.71-1.77l.26-28.52c0-1.45,.79-2.83,2.3-2.83h.13l1.77,.07,.39-4.4-4.14,.13h-.26c-1.05,0-1.31-.46-1.38-1.38l-.46-8.35v-.2c0-1.05,.46-1.38,1.45-1.38l25.89-.79m-14.78,31.61l-3.15-.46-.07,2.96,5.06-.39h.13c.52,0,.85,.39,.85,.92v.26l-.33,1.84c-.13,.92-.39,1.38-1.31,1.45l-4.4,.39v2.89l7.42,.2,.13-14.32c0-1.18-.85-2.43-2.1-2.5l-5.39-.33v2.5l4.53,.66c.66,.07,.85,.46,.85,.92,0,.13,0,.33-.07,.46l-.66,1.71c-.2,.52-.46,.85-1.18,.85h-.33m73.6-31.15c1.05,0,1.38,.66,1.38,1.38l.46,10.58v.13c0,.72-.53,1.45-1.38,1.45l-45.21,1.51c-.92,0-1.45-.46-1.51-1.45l-.46-10.25v-.13c0-1.12,.66-1.51,1.38-1.51l45.21-1.71h.13m168.68,2.98c4.86,0,7.75,2.17,7.95,7.56l.2,5.26v.2c0,2.17-1.12,3.42-3.35,3.48l-38.31,.66-.46,21.42c-.07,3.94-.92,13.8-3.02,18.79-.59,1.25-1.91,1.71-3.15,1.71-.52,0-.98-.07-1.45-.2l-8.8-2.82c-.79-.26-1.12-.85-1.12-1.51,0-.26,0-.46,.13-.72,2.37-4.67,3.55-13.54,3.61-16.03l.46-27.8c.13-5.98,3.29-8.74,6.97-8.87l39.95-1.12h.39m-33.38,12.62l27.14-.66-.13-1.64c-.07-.72-.59-1.38-1.97-1.38h-.2l-23.2,.66c-1.31,.07-1.64,1.12-1.64,2.3v.72m91.73-11.63l9.07,.59c.66,.07,1.18,.53,1.18,1.18v.13l-.59,9.72,.66-.07c.33,0,.72-.07,1.05-.07,4.6,0,6.51,2.76,6.51,7.69v1.12l-.92,15.64c-.13,2.04-1.18,4.8-2.23,6.77-.53,.98-1.38,1.25-2.23,1.25-.59,0-1.12-.13-1.51-.33l-4.34-2.23c-.72-.39-.98-.79-.98-1.25,0-.2,.07-.46,.2-.66,.92-1.58,1.91-3.48,1.97-4.86l.53-8.48v-.2c0-1.18-.46-1.77-1.51-1.77h-.33l-1.91,.13-.92,14.72c-.07,.79-.59,1.45-1.45,1.45h-.13l-3.88-.26c-.98-.07-1.18-.52-1.18-1.25v-.39l.92-13.73-3.88,.33-.79,21.68,11.7,.79h.72c2.37,0,6.11-.53,8.61-1.05h.39c.59,0,1.05,.26,1.12,.85l.99,7.56v.46c0,1.05-.39,2.17-1.58,2.43-2.5,.66-5.72,1.05-8.15,1.05h-.99l-17.68-1.12c-4.8-.33-6.64-2.43-6.64-6.57v-.46l.72-24.77-.72,.07h-.2c-.92,0-1.25-.39-1.31-1.31l-.79-9.27v-.13c0-.72,.46-1.25,1.18-1.31l2.17-.2,.33-10.58c0-.72,.52-1.18,1.25-1.18h.13l8.94,.53c.79,.07,1.31,.46,1.31,1.18l-.33,9.07,3.68-.26,.59-11.57c.07-.72,.39-1.05,1.05-1.05h.2m-36.67,1.51l9.99,.26c.92,0,1.51,.53,1.51,1.45l.2,12.48,1.84,.07c.85,.07,1.31,.39,1.31,1.18v.2l-.39,8.94c-.07,.92-.46,1.45-1.31,1.45h-.13l-1.05-.07,.13,10.84,2.5-.33h.33c.72,0,1.12,.39,1.12,1.25l-.07,8.54c0,.98-.46,1.58-1.45,1.77l-16.76,3.02c-.39,.07-.72,.13-1.05,.13-1.51,0-2.37-.79-2.63-2.17l-1.51-8.02c0-.2-.07-.39-.07-.52,0-.79,.46-1.05,1.25-1.18l5.45-.72-.33-13.21-3.81-.2c-.85-.07-1.31-.59-1.31-1.45v-.2l.39-8.94c.07-.85,.46-1.12,1.25-1.12h.26l3.02,.13-.26-12.22c0-1.18,.66-1.38,1.58-1.38m-106.4,5.47c12.16,0,23.13,9,23.13,21.68s-8.28,20.63-21.95,20.63c-2.76,0-5.45-.39-7.95-1.12l-.66,13.6c-.07,.72-.66,1.31-1.32,1.31h-.13l-13.8-.72c-.79-.07-1.31-.66-1.31-1.45l2.69-51.98c0-.66,.59-1.25,1.31-1.25h.13l12.02,.59c2.63-.85,5.26-1.31,7.82-1.31m-1.05,29.24c7.23,0,7.23-7.03,7.23-7.49,0-4.6-3.68-7.82-8.54-7.82-.92,0-1.97,.13-3.02,.39l-.72,13.8c1.45,.66,3.28,1.12,5.06,1.12m-33.77-28.12c.85,0,1.58,.72,1.58,1.58v51.32c0,.85-.72,1.58-1.58,1.58h-14.52c-.85,0-1.58-.72-1.58-1.58v-51.32c0-.85,.72-1.58,1.58-1.58h14.52m103.97,9.25l7.16,.2c.99,0,1.45,.39,1.45,1.12v5.85c0,.85-.59,1.38-1.64,1.45l-6.97,.26h-.26c-1.05,0-1.45-.39-1.45-1.05l.07-6.64c0-.72,.33-1.18,1.45-1.18h.2m12.29,.46l9.13,.2c.85,0,1.18,.26,1.18,.92l-.07,1.45c0,.59-.46,.72-1.31,.72l-8.87-.2c-.99,0-1.25-.39-1.31-.92v-1.45c0-.59,.46-.72,1.25-.72m-26.48,0l8.87,.33c.85,.07,1.18,.26,1.18,.79v.13l-.13,1.45c-.07,.53-.39,.72-1.05,.72h-.33l-8.61-.33c-.99-.07-1.25-.39-1.25-.99l.07-1.25c.07-.72,.39-.85,1.25-.85m-188.39,.83l55.98,1.05c.92,0,1.25,.79,1.25,1.51l-.39,9.92c-.07,.92-.66,1.38-1.38,1.38l-19.52-.52,.66,11.63v.46c0,2.5-.92,6.24-2.89,10.18-.72,1.45-2.04,2.17-3.48,2.17-.33,0-.66-.07-.99-.13l-11.63-2.5c-.66-.13-1.38-.59-1.38-1.45,0-.39,.13-.85,.46-1.45,2.5-4.53,3.35-6.83,3.35-8.08v-.13l-.46-11.11-20.11-.53c-.85,0-1.31-.52-1.31-1.45v-.2l.39-9.4c.07-1.18,.72-1.38,1.45-1.38m215.07,3.7l8.74,.33c.79,0,1.18,.26,1.18,.79v.13l-.2,1.45c-.07,.52-.39,.72-1.05,.72h-.26l-8.48-.33c-.99-.07-1.25-.39-1.25-.98l.07-1.25c.07-.72,.39-.85,1.25-.85m-26.74,.13l8.87,.2c.92,0,1.25,.26,1.25,.85l-.07,1.45c0,.66-.46,.79-1.31,.79l-8.67-.13c-.92,0-1.25-.39-1.25-.92l-.07-1.31v-.13c0-.59,.46-.79,1.25-.79m1.12,4.86l30.1,.2c4.99,.07,6.77,1.71,6.77,4.34,0,.26-.07,.46-.07,.72l-.53,5.26c-.13,1.25-1.31,1.77-2.3,1.77l-25.5-.72,1.25,.53c.39,.13,.53,.39,.53,.59s-.07,.33-.2,.53l23,1.31c3.88,.26,5.98,1.91,5.98,4.73,0,.26-.07,.53-.07,.79l-.79,6.7c-.2,1.51-1.58,4.01-3.09,5.72-.59,.66-1.77,.98-3.02,.98-.59,0-1.25-.07-1.77-.26l-7.95-2.83c-.46-.13-.66-.46-.66-.72,0-.2,.13-.39,.26-.53,1.64-1.71,3.02-3.28,3.15-4.01l.85-5.72v-.2c0-.79-.66-1.38-1.64-1.45l-17.81-1.12-1.18,1.12,7.29,.33c.79,.07,1.05,.53,1.05,.99v.33h3.15c3.94,0,4.73,1.05,4.73,2.76v.46l-.13,1.91c-.07,.85-.72,1.25-1.91,1.25l-6.77,.13-.13,1.97,2.96-.07-.13-.46v-.2c0-.26,.07-.53,.52-.53l3.75-.2h.2c.52,0,.79,.26,.85,.52l.72,2.37c.07,.13,.07,.33,.07,.46,0,.92-.79,1.58-2.04,1.64l-22.14,.85h-.33c-.92,0-1.51-.26-1.64-.99l-.46-2.23v-.13c0-.39,.26-.66,.66-.66l6.97-.13,.13-2.04-5.06,.07c-.79,0-1.18-.46-1.25-1.18l-.26-4.14v-.13c0-.66,.52-1.25,1.58-1.25h5.06v-.39c-.33,0-.72-.07-.98-.2l-5.65-2.43c-.39-.13-.53-.46-.53-.72s.13-.59,.39-.79l4.34-3.55h-.26c-1.31-.07-1.91-.72-1.91-1.97l-.07-7.82c0-.98,.59-1.58,1.91-1.58m9.46,8.48l-.33-2.1v-.13c0-.39,.2-.59,.59-.66l2.63-.13h.26c.53,0,.66,.2,.72,.53l.46,2.56h1.91l.39-2.69c.07-.46,.53-.53,.99-.53l3.81,.39c.46,.07,.72,.26,.72,.53,0,.07-.07,.13-.07,.2l-.39,2.17,3.88,.07,.13-2.63v-.13c0-.66-.46-1.31-1.97-1.31l-16.49-.33-.2,4.14,2.96,.07m.59,15.38l4.21-.13,.07-.99v-.07c0-.59-.59-.92-1.31-.92l-2.82,.07-.13,2.04m-3.88-2.04l-3.42,.07v2.17l3.29-.07,.13-2.17m-191.94-13.56c.26,0,.59,0,.85,.13l10.05,3.74c.79,.26,1.18,.99,1.18,1.78,0,.33-.07,.66-.2,.92l-3.29,8.15c-.39,.99-1.45,1.51-2.37,1.51-.26,0-.53-.07-.72-.13l-10.18-3.22c-.99-.33-1.51-1.18-1.51-2.04,0-.26,.07-.59,.2-.85l4.21-8.94c.33-.72,.99-1.05,1.78-1.05m48.1,.39c.85,0,1.51,.59,1.91,1.45l3.42,7.56c.26,.53,.39,.99,.39,1.45,0,.79-.53,1.38-1.51,1.78l-9.99,3.75c-.33,.13-.66,.2-.99,.2-.92,0-1.77-.53-2.04-1.31l-2.82-8.94c-.07-.2-.07-.39-.07-.66,0-.85,.46-1.64,1.32-1.91l9.72-3.22c.2-.07,.46-.13,.66-.13m-91.27,4.14c.13,0,.26,0,.39,.07l2.43,1.71c.2,.13,.39,.46,.39,.85,0,.13-.07,.26-.13,.39l-1.91,2.5c-.13,.2-.46,.33-.72,.33-.2,0-.39-.07-.52-.2l-2.43-2.17c-.2-.2-.33-.46-.33-.72,0-.13,.07-.33,.13-.39l1.91-2.1c.2-.2,.52-.26,.79-.26m-5.06,1.91c.39,0,.72,.13,.85,.46l1.97,4.14c.07,.13,.07,.2,.07,.33,0,.39-.2,.85-.52,.99l-3.42,1.45c-.13,.07-.33,.07-.46,.07-.46,0-.79-.26-.92-.52l-1.51-4.47c-.07-.2-.07-.33-.07-.53,0-.39,.2-.79,.59-.92l3.02-.92c.13-.07,.26-.07,.39-.07m-6.97,1.51c.66,0,1.05,.46,1.25,.98l1.64,5.59c.07,.2,.07,.33,.07,.46,0,.72-.46,1.25-.99,1.38l-4.73,1.05c-.2,.07-.33,.07-.46,.07-.72,0-1.18-.39-1.31-1.12l-.99-6.05v-.26c0-.59,.39-.99,.99-1.12l4.21-.92c.13,0,.26-.07,.33-.07m-14.19,.26c.26,0,.46,.07,.66,.13l6.37,2.04c.72,.26,.99,.79,.99,1.38,0,.2,0,.39-.07,.59l-2.04,6.31c-.26,.79-.99,1.25-1.77,1.25-.2,0-.46-.07-.66-.13l-6.64-1.97c-.66-.2-.99-.79-.99-1.38,0-.2,.07-.46,.13-.66l2.76-6.64c.26-.59,.72-.92,1.25-.92M174.63,31.82h-.33s-13.14,.66-13.14,.66h-.1s-.1,.01-.1,.01c-2.72,.27-4.85,2.6-4.85,5.29v.34s2.76,53.68,2.76,53.68v.07s0,.06,0,.06c.24,2.84,2.57,4.98,5.43,4.98h.22s10.17-.55,10.17-.55c3,1.02,6.04,1.54,9.06,1.54,6.7,0,13.07-2.38,17.94-6.71,4.32-3.84,7.02-8.86,7.78-14.39l.77,15.01v.08s.01,.08,.01,.08c.25,2.82,2.53,4.95,5.3,4.95h.33s13.14-.66,13.14-.66h.1s.1-.01,.1-.01c2.72-.27,4.85-2.6,4.85-5.29v-.34s-1.64-32-1.64-32c-.04-1.43-.69-2.75-1.69-3.68,1.72-2.29,2.74-5.13,2.74-8.2,0-7.57-6.13-13.72-13.66-13.72s-13.72,6.16-13.72,13.72c0,3.63,1.43,6.93,3.75,9.38-.79,.95-1.25,2.17-1.25,3.5v.21s.39,7.5,.39,7.5c-2.53-10.56-11.62-17.29-24.19-17.29-1.42,0-2.83,.09-4.2,.27l-.68-13.36v-.08s-.01-.08-.01-.08c-.25-2.82-2.53-4.95-5.3-4.95h0Zm7.05,38.79c.38-.07,.75-.1,1.1-.1,.68,0,2.77,0,2.77,3.29,0,2.26-1.67,3.39-3.49,3.59l-.37-6.78h0Zm71.21-38.46h-13.21c-2.93,0-5.31,2.41-5.31,5.38v53.68c0,2.93,2.38,5.31,5.31,5.31h13.21c2.93,0,5.31-2.38,5.31-5.31V51.43c.65,1.75,1.65,3.34,2.91,4.67-.79,.95-1.25,2.17-1.25,3.5v.21s1.65,32,1.65,32v.08s.01,.08,.01,.08c.25,2.82,2.53,4.96,5.3,4.96h.33s13.14-.66,13.14-.66h.1s.1-.01,.1-.01c2.72-.27,4.85-2.6,4.85-5.29v-.34s-1.64-32-1.64-32c-.04-1.43-.69-2.75-1.69-3.68,1.72-2.29,2.74-5.13,2.74-8.2,0-7.57-6.13-13.72-13.66-13.72-5.91,0-10.96,3.75-12.89,9v-4.47c0-2.97-2.38-5.38-5.31-5.38h0Zm-128.46,0h-13.21c-2.93,0-5.31,2.41-5.31,5.38v53.68c0,2.93,2.38,5.31,5.31,5.31h13.21c2.93,0,5.31-2.38,5.31-5.31V51.43c.65,1.75,1.65,3.34,2.91,4.68-.79,.95-1.26,2.17-1.26,3.5v.21s1.65,32,1.65,32v.08s.01,.08,.01,.08c.25,2.82,2.53,4.95,5.3,4.95h.33s13.14-.66,13.14-.66h.1s.1-.01,.1-.01c2.72-.27,4.85-2.6,4.85-5.29v-.34s-1.64-32-1.64-32c-.04-1.43-.69-2.75-1.69-3.68,1.72-2.29,2.74-5.13,2.74-8.2,0-7.57-6.13-13.72-13.66-13.72-5.91,0-10.96,3.75-12.89,9v-4.48c0-2.97-2.38-5.38-5.31-5.38h0Zm-71.89,.72c-5.09,0-10.17,.88-14.4,2.48l-6.91,.42c-2.97,.08-5.35,2.49-5.35,5.44v.34s2.44,46.78,2.44,46.78l.02,.29,.06,.29c.76,3.79,4.28,6.45,10.47,7.91,3.8,.9,7.98,1.22,10.4,1.22,15.15,0,30.48-7.29,30.48-21.22,0-2.79-.66-5.73-1.96-8.73-.68-1.62-1.55-2.92-2.49-4.01,2.21-3.11,3.4-6.69,3.4-10.39,0-.67-.03-1.35-.1-2.02,.65,1.66,1.61,3.16,2.82,4.43-.79,.95-1.26,2.17-1.26,3.5v.21s1.65,32,1.65,32v.08s.01,.08,.01,.08c.25,2.82,2.53,4.96,5.3,4.96h.33s13.14-.66,13.14-.66h.1s.1-.01,.1-.01c2.72-.27,4.85-2.6,4.85-5.29v-.34s-1.64-32-1.64-32c-.04-1.43-.69-2.75-1.69-3.68,1.72-2.29,2.74-5.13,2.74-8.2,0-7.57-6.13-13.72-13.66-13.72s-13.72,6.16-13.72,13.72c0,.25,0,.49,.02,.73-2.68-7.95-10.73-14.59-25.13-14.59h0Zm-1.34,24.16l-.18-3.59c1.24,.06,3.51,.36,3.51,1.84,0,.31,0,.78-1.63,1.34-.53,.18-1.11,.32-1.69,.42h0Zm1.07,20.87l-.13-2.51c2,.08,2.85,.49,3.14,.67,.19,.12,.22,.14,.22,.51,0,.29-.99,1.11-3.23,1.33h0Zm322.67-28.64h-.08s-35.59,.76-35.59,.76c-2.79,.03-4.97,2.17-4.97,4.89v.24s.22,5.74,.22,5.74c.04,1.92,1.1,3.54,2.67,4.34-.16,.57-.25,1.17-.27,1.81l-.56,15.29-1.02,.3h-.02s-.02,.01-.02,.01c-.16,.05-.32,.11-.47,.17l.13-13.56v-.17c0-6.04-3.61-10.1-8.99-10.1h-.01l-17.1,.04c-2.61,0-4.7,1.66-5.46,4.15-.05-.03-.1-.06-.14-.08l-5.09-2.96c-1.09-.66-2.12-.66-2.46-.66-1.68,0-3.25,.88-4.1,2.3l-4.76,7.87c-.79,1.31-1.2,2.78-1.2,4.25,0,2.28,.93,4.42,2.61,6.06-2.15,.75-3.14,2.7-3.14,4.45,0,.23,.02,.44,.04,.61h0s.05,.32,.05,.32l.66,4.25c.06,.43,.18,.84,.34,1.22-.37,.6-.63,1.3-.74,2.07v.05s-.01,.05-.01,.05l-.53,4.59-.03,.23v.46c0,2.66,1.92,4.65,4.67,4.84h.03s.03,0,.03,0l1.57,.08c.81,1.58,2.43,2.6,4.38,2.6h.31s6.05-.27,6.05-.27h.03s.03,0,.03,0c.53-.03,1.03-.14,1.5-.31,.89,.9,2.16,1.43,3.65,1.43h.09s3.93-.09,3.93-.09c2.11-.02,4.28-1.25,4.92-3.92,.25,.03,.51,.04,.77,.04h.55s.06-.01,.06-.01c.4,1.51,1.56,2.76,3.12,3.28l4.89,1.66c.65,.24,1.36,.37,2.07,.37,2.14,0,4.07-1.2,5.04-3.14v-.02s.02-.02,.02-.02c.63-1.3,2.09-4.6,2.09-7.31l.03-2.94,.88,1.7,.02,.03,.02,.03c.96,1.75,2.73,2.8,4.76,2.8,.92,0,1.76-.24,2.46-.47h.04s.03-.02,.03-.02l8.95-3.16c1.46-.53,2.54-1.61,3.06-2.94l5.07,.09c.29,1.9,1.65,3.41,3.65,3.96l.07,.02,.07,.02,7.86,1.85c-.22,3.28-.64,6.44-1.23,9.31-.16,.6-.16,1.07-.16,1.32,0,2.28,1.54,4.26,3.74,4.81l5.35,1.34,.09,.02,.09,.02c.33,.07,.83,.17,1.45,.17,1.16,0,2.23-.3,3.14-.84,.85,.77,1.96,1.24,3.18,1.24h.36s3.94-.27,3.94-.27c.83-.05,1.59-.26,2.26-.61l1.1,.55c.09,.05,.19,.09,.28,.13-.4,.41-.73,.9-.97,1.44-.43-.14-.9-.23-1.39-.28h-.05s-.05,0-.05,0l-8.94-.53h-.12s-.12,0-.12,0h-.13c-2.91,0-5.2,2.23-5.25,5.1l-.22,7.17s0,0,0,0l-.11-7.2c-.02-3.06-2.35-5.37-5.44-5.4l-9.95-.26h-.05s-.05,0-.05,0c-3.85,0-5.58,2.7-5.58,5.38v.09s.17,8.05,.17,8.05c-2.49,.32-4.23,2.15-4.43,4.76v.07s0,.07,0,.07l-.39,8.94v.09s0,.09,0,.09v.2c0,2.97,2.06,5.21,5.01,5.43h.05s.05,0,.05,0h.11s.15,5.92,.15,5.92l-1.89,.25h-.07s-.07,.02-.07,.02c-1.49,.25-2.55,.86-3.28,1.65,.01-.08,.02-.16,.03-.25l.53-5.27,.02-.2v-.05c.03-.22,.07-.52,.07-.87,0-1.26-.27-3.38-1.84-5.17,.15-.38,.25-.78,.29-1.17l.19-1.4,.04-.27v-.4c0-.46-.07-.92-.2-1.36,.21-.55,.31-1.1,.33-1.58l.06-1.41v-.09s0-.09,0-.09c0-.7-.14-1.42-.44-2.09,1-1.26,1.55-2.91,1.55-4.81v-.35s-.2-5.26-.2-5.26c-.26-7.25-4.62-11.41-11.95-11.41h-.51s-39.95,1.12-39.95,1.12c-4.9,.17-10.65,3.63-10.85,12.78l-.46,27.82c-.06,2.43-1.26,10.5-3.18,14.29-.56,1.13-.56,2.08-.56,2.53,0,2.44,1.51,4.53,3.85,5.31l8.85,2.84,.06,.02,.06,.02c.83,.24,1.66,.35,2.54,.35,1.35,0,2.6-.29,3.68-.84,.86,1.29,2.4,2.35,4.8,2.35h.48s22.14-.86,22.14-.86h.03s.03,0,.03,0c1.03-.05,1.98-.31,2.8-.74l6.41,2.28c.91,.33,1.96,.5,3.14,.5,2.53,0,4.65-.82,5.99-2.31,1.79-2.03,3.74-5.23,4.08-7.87v-.02c1.2,1.34,2.94,2.12,4.97,2.12,.62,0,1.14-.09,1.55-.16l.15-.03h.03s.03,0,.03,0l16.17-2.92c.62,3.87,3.07,7.74,10.19,8.23l17.7,1.12h.13s.13,0,.13,0h.99c2.82,0,6.38-.46,9.11-1.17,2.81-.67,4.62-3.14,4.62-6.31v-.72l-.03-.26-.98-7.53c-.14-1.12-.61-2.08-1.31-2.82,.74-1.47,2.25-4.81,2.45-7.92l.92-15.66v-.12s0-.12,0-.12v-1.12c0-8.26-4.5-10.75-7.97-11.44l.34-5.6v-.12s0-.12,0-.12v-.13c0-1.38-.55-2.65-1.46-3.58,.75-.43,1.41-1,1.93-1.68,.09,0,.17,0,.26,0,1.91,0,3.62-1.05,4.47-2.74l.05-.11,.05-.11,1.84-4.3c.44-.96,.44-1.77,.44-2.13,0-.95-.28-2.66-2.08-4.01,.52-2.08,.91-4.02,1.11-5.58v-.06s.01-.06,.01-.06v-.1c.06-.46,.11-.98,.11-1.55,0-3.46-1.33-6.24-3.59-7.87,2.02-.59,3.47-2.4,3.5-4.62l.18-6.78v-.05s0-.05,0-.05c0-2.2-1.49-4.66-4.76-4.88h-.06s-.06,0-.06,0l-13.8-.49h-.07s-.07,0-.07,0h-.22c-2.06,0-4.16,.66-5.83,2.04-.73-1.73-2.4-2.88-4.45-2.88h-.33s-3.61,.18-3.61,.18h-.05s-.05,0-.05,0c-1.79,.14-3.2,1.03-3.94,2.38l-4.69-.1c-.1-2.29-.8-4.25-1.99-5.79,2.35-.39,4.1-2.43,4.1-4.96v-.15s-.22-5.78-.22-5.78c-.05-2.72-2.24-4.83-5.02-4.83h0ZM78.1,108.84h-1.04s-21.68,1.72-21.68,1.72h-.05s-.05,0-.05,0c-3.35,.35-5.68,2.88-5.68,6.15v.32s.92,19.06,.92,19.06c.07,1.28,.51,2.43,1.21,3.35l-.4,.59c-.8,1.2-1.74,3.08-1.74,5.33,0,1.91,.6,3.67,1.78,5.23-1.25,.82-2.05,2.23-2.05,3.9v.61l.04,.28,.72,5.11c.13,.96,.51,1.83,1.06,2.54l-2.04,4.91-.05,.13-.04,.13c-.23,.67-.34,1.32-.34,1.93,0,2.43,1.54,4.52,3.84,5.21l6.59,1.96c.64,.21,1.27,.31,1.85,.31,2.06,0,3.93-1.06,4.98-2.74,.57,.2,1.2,.31,1.85,.31,.37,0,.86-.02,1.46-.19l4.59-1.02h.05s.05-.02,.05-.02c1.39-.35,2.53-1.24,3.23-2.42,.38-.05,.85-.15,1.34-.36l1.77-.75c.11,.17,.22,.34,.35,.5l3.8,5.22c1.18,1.67,2.87,2.59,4.76,2.59,1.37,0,2.77-.5,4.04-1.46l5.56-4.1c.27,.23,.57,.44,.89,.62l7.59,4.45,.12,.07,.12,.06c.51,.26,1.55,.68,2.77,.68,2.12,0,4.04-1.09,5.14-2.93l.02-.04,.02-.04,3.55-6.24c.38,.23,.8,.42,1.24,.57h.03s.03,.02,.03,.02l10.16,3.21c.66,.22,1.32,.33,1.95,.33,1.09,0,2.13-.27,3.06-.75,.79,1.31,2.14,2.29,3.8,2.63l11.61,2.49h.03s.03,.01,.03,.01c.45,.09,1.05,.21,1.76,.21,3.05,0,5.69-1.64,7.06-4.38,.7-1.41,1.31-2.83,1.8-4.23l.07,.23v.03s.02,.03,.02,.03c.81,2.42,3.15,4.05,5.83,4.05,.82,0,1.63-.16,2.42-.46l9.96-3.73,.04-.02,.04-.02c2.52-1.01,4.03-3.06,4.03-5.49,0-1.05-.25-2.08-.78-3.16l-3.23-7.15c1.87-.74,3.19-2.5,3.34-4.72v-.06s0-.06,0-.06l.39-9.92v-.08s0-.08,0-.08c0-3.12-2.23-5.49-5.2-5.51l-44.45-.83,38.44-1.29c2.93-.05,5.29-2.47,5.29-5.44v-.31s-.46-10.51-.46-10.51c-.05-3.06-2.3-5.27-5.38-5.27h-.28s-45.15,1.71-45.15,1.71c-3.02,.05-5.29,2.4-5.29,5.51v.31s.47,10.25,.47,10.25v.04s0,.04,0,.04c.15,2.27,1.44,4.03,3.35,4.79l-2.5-.05h-.04s-.04,0-.04,0c-1.9,0-3.46,.79-4.41,2.11-.58-2.34-1.89-4.36-3.71-5.8,2.76-.37,4.56-2.5,4.56-5.52v-.12s-.26-8.5-.26-8.5c-.03-2.62-1.74-5.24-5.51-5.24h-.12s-25.84,.79-25.84,.79c-.99,0-1.88,.22-2.64,.6-1.69-1.44-3.91-2.25-6.48-2.25h0Zm40.01,49.9l.11-7.07c.69,.69,1.57,1.17,2.59,1.38,0,.02-.01,.03-.02,.05l-2.68,5.69s0-.04,0-.05h0Zm20.16-4.99l-.42-.16h.42s0,.16,0,.16h0Zm117.7-32.65c-2.7,0-5.5,.43-8.33,1.28l-11.31-.56h-.1s-.1,0-.1,0h-.13c-2.88,0-5.24,2.28-5.31,5.11l-2.69,51.91v.1s0,.1,0,.1c0,2.86,2.14,5.2,4.98,5.43h.06s.06,0,.06,0l13.8,.72h.1s.1,0,.1,0h.13c2.72,0,5.04-2.17,5.3-4.95v-.09s.01-.09,.01-.09l.43-8.94c1.38,.18,2.78,.26,4.18,.26,15.52,0,25.95-9.9,25.95-24.63,0-7.14-2.96-13.74-8.33-18.57-5.1-4.59-11.77-7.11-18.8-7.11h0Zm-1.95,29.18l.38-7.2c1.97,.25,3.75,1.44,3.75,3.77,0,3.49-2.34,3.49-3.23,3.49-.29,0-.59-.02-.9-.06h0Zm-32.87-28.06h-14.52c-3.08,0-5.58,2.5-5.58,5.58v51.32c0,3.08,2.5,5.58,5.58,5.58h14.52c3.08,0,5.58-2.5,5.58-5.58v-51.32c0-3.08-2.5-5.58-5.58-5.58h0Z" style="fill:#231815;"/></g></mask></defs><g id="a"><g style="mask:url(#b);"><g><rect x="8" y="3.61" width="436.15" height="207.1" style="fill:#4eaae5;"/><path d="M12.68,29.34c2.41,29.1,63.39,26.7,105.08,17.06,51.95-12.01,67.38,6.32,121.46,17.74,20.38,4.3,118.95,6.13,135.11,14.33,58.11,29.5,69.81,65.41,69.81,65.41l-7.72,49.23s-117.53-15.65-135.79-25.93c-59.94-33.74-134.67-8.39-185.49-15.19C37.85,141.63,8,84.98,8,84.98L12.68,29.34Z" style="fill:#3172bb;"/></g></g><g><g><path d="M303.81,55.31l-9.79-.48c-4.07-.22-6.12-2.28-6.12-6.1l.19-13.35c.09-1.56,1.12-2.54,2.57-2.54l4.52,.02c1.49,0,2.59,1.09,2.59,2.6-.02,.59-.04,1.23-.05,1.9,.75-.24,1.55-.49,2.26-.72l-.39-1.41v-.07c-.05-.16-.1-.38-.1-.67,0-.93,.55-2.12,2.1-2.4l1.97-.25h.12c.55,0,1.05,.15,1.48,.43l.05-.04c.28-.23,.82-.53,1.57-.53,.87,0,1.49,.45,1.69,.59l.09,.07,1.38,1.26,.09,.07c.59,.49,.91,1.16,.91,1.9,0,.46-.14,1.16-.82,1.84l-.1,.1-1.31,1.15c-.54,.43-1.09,.64-1.65,.64-.25,0-.57-.04-.91-.17l.76,1.72c.21,.42,.31,.85,.31,1.28,0,.99-.57,1.86-1.48,2.26-2.25,1.11-5.14,1.67-6.89,1.92l5.65,.2c1.45,0,2.55,1.15,2.55,2.74v3.15c0,1.7-1.32,2.93-3.15,2.93h-.12Z" style="fill:#4eabe6;"/><path d="M306.8,33.69c.19,0,.36,.1,.52,.22l1.39,1.26,.07,.05c.14,.12,.19,.24,.19,.36,0,.14-.09,.29-.24,.43l-1.31,1.15c-.12,.1-.24,.14-.33,.14-.17,0-.31-.1-.43-.22l-1.53-1.65c-.12-.12-.17-.24-.17-.33,0-.17,.17-.29,.26-.36l1.22-.93c.12-.1,.24-.12,.36-.12m-3.03,.14c.33,0,.57,.29,.64,.57l.41,1.79c.02,.07,.02,.14,.02,.21,0,.26-.17,.41-.57,.45l-1.48,.1h-.17c-.33,0-.5-.12-.57-.36l-.5-1.84c-.02-.12-.05-.19-.05-.29,0-.29,.19-.38,.45-.43l1.74-.22h.07m-13.1,1l4.51,.02c.38,0,.6,.19,.6,.6-.05,1.31-.07,2.96-.09,4.63,.07-.05,.17-.07,.29-.1,1.34-.38,6.06-1.91,6.78-2.15,.12-.05,.22-.07,.31-.07,.24,0,.38,.12,.45,.26l1.62,3.65c.07,.14,.12,.29,.12,.43,0,.17-.07,.33-.29,.43-3.05,1.5-7.45,1.91-7.59,1.91-.38,0-.55-.12-.67-.45l-1.05-3.08c-.02,1.15-.14,5.73-.14,6.59,0,.6,.38,.69,.69,.69l8.26,.29c.36,0,.62,.21,.62,.74v3.15c0,.57-.43,.93-1.15,.93h-.12l-9.69-.48c-3.46-.19-4.22-1.86-4.22-4.1v-.22l.19-13.1c.02-.41,.19-.57,.57-.57m16.13-5.15c-.6,0-1.19,.11-1.73,.33-.42-.12-.85-.19-1.3-.19h-.32l-.24,.03-1.74,.22h-.11s-.11,.03-.11,.03c-1.29,.23-2.34,.91-2.99,1.87-.8-.71-1.87-1.12-3.08-1.12l-4.49-.02h-.01s-.01,0-.01,0c-2.5,0-4.42,1.83-4.57,4.34v.09s0,.09,0,.09l-.19,13.1v.03s0,.03,0,.03v.22c0,4.87,2.92,7.82,8,8.1l9.71,.48h.1s.1,0,.1,0h.12c2.93,0,5.15-2.12,5.15-4.93v-3.15c0-1.47-.59-2.74-1.54-3.59,1.07-.83,1.71-2.1,1.71-3.52,0-.44-.06-.87-.18-1.29,.29-.15,.58-.33,.85-.54l.07-.06,.07-.06,1.31-1.15,.1-.09,.1-.1c1.17-1.17,1.41-2.41,1.41-3.26,0-1.32-.59-2.57-1.63-3.43l-.15-.13-1.17-1.07-.18-.16-.19-.14c-.89-.64-1.85-.96-2.85-.96h0Z" style="fill:#f7f8f8;"/></g><g><path d="M320.19,52.27c-.63,0-1.14-.22-1.56-.4l-2.91-1.25c-.86-.32-1.47-1.2-1.47-2.2,0-.89,.5-1.55,.69-1.8,1.19-1.45,2.05-3.34,2.6-5.65-.5,.81-1.39,1.31-2.44,1.31h-.18s-3.55-.19-3.55-.19c-1.26-.08-2.51-.98-2.51-2.81s-.17-5.53-.33-7.37v-.09c-.02-.13-.03-.25-.03-.35,0-1.26,.85-2.52,2.74-2.52l4.38-.02c1.48,0,2.2,.75,2.55,1.73,.1-1.44,1.22-2.5,2.68-2.5l4.22,.05c.58,0,2.58,.19,2.89,2.58,.17,1.34,.26,2.77,.26,4.26,0,6.7-2.04,12.2-6.05,16.33-.57,.57-1.27,.87-1.98,.87Z" style="fill:#4eabe6;"/><path d="M320.86,30.18l4.2,.05c.83,0,.88,.5,.93,.86,.17,1.31,.24,2.65,.24,3.98,0,5.37-1.41,10.74-5.49,14.94-.17,.17-.36,.26-.55,.26-.24,0-.5-.12-.84-.26l-2.84-1.22c-.19-.07-.26-.21-.26-.36,0-.19,.14-.41,.29-.6,2.98-3.65,3.72-9.12,3.72-13.84,0-1.05-.05-2.08-.09-3.03v-.07c0-.41,.24-.72,.69-.72m-5.23,.76c.64,0,.88,.17,.88,2.77,0,2.1-.26,4.75-.55,5.92-.12,.5-.48,.67-.86,.67h-.07l-3.55-.19c-.38-.02-.62-.24-.62-.81,0-1.77-.17-5.61-.33-7.54,0-.1-.02-.19-.02-.26,0-.36,.14-.52,.74-.52l4.39-.02m5.25-4.76h-.02c-1.23,0-2.33,.45-3.15,1.2-.62-.28-1.32-.43-2.07-.43h-.02s-4.39,.02-4.39,.02c-3.09,0-4.72,2.28-4.72,4.52,0,.22,.02,.41,.03,.54v.07c.16,1.8,.33,5.49,.33,7.2,0,2.63,1.84,4.65,4.37,4.8l2.94,.16c-.23,.38-.47,.73-.73,1.05l-.05,.06-.05,.06c-.27,.36-1.09,1.45-1.09,3,0,1.8,1.07,3.37,2.73,4.05l2.8,1.2,.07,.03c.49,.21,1.3,.56,2.35,.56,1.25,0,2.45-.51,3.37-1.43l.02-.02,.02-.02c4.39-4.52,6.62-10.49,6.62-17.73,0-1.57-.09-3.08-.27-4.49-.42-3.22-2.9-4.35-4.9-4.35l-4.16-.05h-.02Z" style="fill:#f7f8f8;"/></g><g><path d="M343.44,55.31l-9.79-.48c-4.07-.22-6.13-2.28-6.13-6.1l.19-13.35c.09-1.56,1.12-2.54,2.57-2.54l4.52,.02c1.49,0,2.58,1.09,2.58,2.6-.02,.59-.04,1.23-.05,1.9,.75-.24,1.55-.49,2.26-.72l-.39-1.41v-.07c-.05-.16-.1-.39-.1-.67,0-.93,.55-2.12,2.1-2.4l1.97-.25h.12c.55,0,1.05,.15,1.48,.43l.05-.04c.29-.23,.83-.53,1.57-.53,.87,0,1.49,.45,1.69,.59l.09,.07,1.38,1.26,.1,.08c.58,.49,.91,1.16,.91,1.89,0,.47-.14,1.16-.82,1.84l-.1,.09-1.31,1.15c-.54,.44-1.09,.64-1.65,.64-.25,0-.57-.04-.91-.17l.76,1.72c.21,.42,.31,.85,.31,1.28,0,.99-.57,1.86-1.48,2.26-2.25,1.11-5.14,1.67-6.89,1.92l5.65,.2c1.45,0,2.55,1.15,2.55,2.74v3.15c0,1.7-1.32,2.93-3.15,2.93h-.12Z" style="fill:#4eabe6;"/><path d="M346.42,33.69c.19,0,.36,.1,.52,.22l1.39,1.26,.07,.05c.14,.12,.19,.24,.19,.36,0,.14-.09,.29-.24,.43l-1.31,1.15c-.12,.1-.24,.14-.33,.14-.17,0-.31-.1-.43-.22l-1.53-1.65c-.12-.12-.17-.24-.17-.33,0-.17,.17-.29,.26-.36l1.22-.93c.12-.1,.24-.12,.36-.12m-3.03,.14c.33,0,.57,.29,.64,.57l.41,1.79c.02,.07,.02,.14,.02,.21,0,.26-.17,.41-.57,.45l-1.48,.1h-.17c-.33,0-.5-.12-.57-.36l-.5-1.84c-.02-.12-.05-.19-.05-.29,0-.29,.19-.38,.45-.43l1.74-.22h.07m-13.1,1l4.51,.02c.38,0,.6,.19,.6,.6-.05,1.31-.07,2.96-.09,4.63,.07-.05,.17-.07,.29-.1,1.34-.38,6.06-1.91,6.78-2.15,.12-.05,.22-.07,.31-.07,.24,0,.38,.12,.45,.26l1.62,3.65c.07,.14,.12,.29,.12,.43,0,.17-.07,.33-.29,.43-3.05,1.5-7.45,1.91-7.59,1.91-.38,0-.55-.12-.67-.45l-1.05-3.08c-.02,1.15-.14,5.73-.14,6.59,0,.6,.38,.69,.69,.69l8.26,.29c.36,0,.62,.21,.62,.74v3.15c0,.57-.43,.93-1.15,.93h-.12l-9.69-.48c-3.46-.19-4.22-1.86-4.22-4.1v-.22l.19-13.1c.02-.41,.19-.57,.57-.57m16.13-5.15c-.6,0-1.19,.11-1.73,.33-.42-.12-.85-.19-1.3-.19h-.32l-.24,.03-1.74,.22h-.11s-.11,.03-.11,.03c-1.29,.23-2.34,.91-2.99,1.87-.8-.71-1.87-1.12-3.08-1.12l-4.49-.02h-.01s-.01,0-.01,0c-2.5,0-4.42,1.83-4.57,4.34v.09s0,.09,0,.09l-.19,13.1v.03s0,.03,0,.03v.22c0,4.87,2.92,7.82,8,8.1l9.71,.48h.1s.1,0,.1,0h.12c2.93,0,5.15-2.12,5.15-4.93v-3.15c0-1.47-.59-2.74-1.54-3.59,1.07-.83,1.71-2.1,1.71-3.52,0-.44-.06-.87-.18-1.29,.29-.15,.58-.33,.85-.54l.07-.06,.07-.06,1.31-1.15,.1-.09,.1-.1c1.17-1.17,1.41-2.41,1.41-3.26,0-1.32-.59-2.57-1.63-3.43l-.15-.13-1.17-1.07-.18-.16-.19-.14c-.89-.64-1.85-.96-2.85-.96h0Z" style="fill:#f7f8f8;"/></g><g><path d="M360,51.87c-.63,0-1.14-.22-1.55-.39l-2.91-1.25c-.86-.32-1.47-1.2-1.47-2.2,0-.89,.5-1.55,.69-1.8,1.19-1.45,2.05-3.34,2.6-5.65-.51,.81-1.39,1.31-2.44,1.31h-.18s-3.55-.19-3.55-.19c-1.26-.08-2.51-.98-2.51-2.81s-.17-5.53-.33-7.37v-.09c-.02-.13-.03-.24-.03-.34,0-1.26,.85-2.52,2.74-2.52l4.38-.02c1.48,0,2.2,.75,2.55,1.73,.1-1.44,1.22-2.5,2.68-2.5l4.22,.05c.58,0,2.58,.19,2.89,2.58,.17,1.35,.26,2.78,.26,4.26,0,6.7-2.04,12.2-6.05,16.33-.57,.57-1.27,.87-1.98,.87Z" style="fill:#4eabe6;"/><path d="M360.67,29.78l4.2,.05c.83,0,.88,.5,.93,.86,.17,1.31,.24,2.65,.24,3.98,0,5.37-1.41,10.74-5.49,14.94-.17,.17-.36,.26-.55,.26-.24,0-.5-.12-.84-.26l-2.84-1.22c-.19-.07-.26-.21-.26-.36,0-.19,.14-.41,.29-.6,2.98-3.65,3.72-9.12,3.72-13.84,0-1.05-.05-2.08-.09-3.03v-.07c0-.41,.24-.72,.69-.72m-5.23,.76c.64,0,.88,.17,.88,2.77,0,2.1-.26,4.75-.55,5.92-.12,.5-.48,.67-.86,.67h-.07l-3.55-.19c-.38-.02-.62-.24-.62-.81,0-1.77-.17-5.61-.33-7.54,0-.1-.02-.19-.02-.26,0-.36,.14-.52,.74-.52l4.39-.02m5.25-4.76h-.02c-1.23,0-2.33,.45-3.15,1.2-.62-.28-1.32-.43-2.07-.43h-.02s-4.39,.02-4.39,.02c-3.09,0-4.72,2.28-4.72,4.52,0,.22,.02,.42,.03,.54v.07c.16,1.8,.33,5.5,.33,7.2,0,2.63,1.84,4.65,4.37,4.8l2.94,.16c-.23,.38-.47,.73-.73,1.05l-.05,.06-.05,.06c-.27,.36-1.09,1.45-1.09,3,0,1.8,1.07,3.37,2.73,4.05l2.8,1.2,.07,.03c.49,.21,1.3,.56,2.35,.56,1.25,0,2.45-.51,3.37-1.43l.02-.02,.02-.02c4.39-4.52,6.62-10.49,6.62-17.73,0-1.57-.09-3.08-.27-4.49-.42-3.22-2.9-4.35-4.9-4.35l-4.16-.05h-.02Z" style="fill:#f7f8f8;"/></g><g><path d="M379.53,51.01c-.17,0-.57,0-1.05-.19l-3.06-1.05c-1.52-.61-1.68-1.8-1.68-2.28,0-.72,.35-1.24,.48-1.44l.06-.08c1.8-2.43,3.34-5.28,4.23-7.12l-.65-.05-.11,.93c-.21,1.4-1.34,2.39-2.63,2.39h-.19s-4.46-.31-4.46-.31c-1.41-.09-2.48-1.19-2.48-2.54v-.29s.66-5.92,.66-5.92c.17-1.69,1.65-2.98,3.44-2.98h.22l1.86,.14v-2.25c0-1.41,1.2-2.6,2.62-2.6h5.42c1.46,0,2.64,1.17,2.64,2.6v3.06l.95,.07c2.52,.19,4.42,2.06,4.42,4.36,0,1.72-1.56,8.11-8.5,14.72l-.06,.06-.07,.06c-.27,.22-1.02,.72-2.06,.72Z" style="fill:#4eabe6;"/><path d="M382.2,27.36c.36,0,.64,.29,.64,.6v3.15c0,.31-.38,.5-.64,.5h-5.42c-.33,0-.62-.21-.62-.5v-3.15c0-.31,.31-.6,.62-.6h5.42m-9.98,4.7l13.41,1.03c1.29,.1,2.58,.95,2.58,2.36,0,.57-.81,6.54-7.88,13.27-.12,.1-.43,.29-.81,.29-.1,0-.19,0-.31-.05l-3.05-1.05c-.24-.1-.43-.22-.43-.43,0-.1,.05-.19,.14-.33,2.98-4.03,5.37-9.28,5.37-9.74,0-.26-.17-.38-.48-.41l-4.06-.31h-.17c-.38,0-.48,.17-.52,.5l-.26,2.29c-.05,.31-.33,.62-.64,.62h-.05l-4.46-.31c-.36-.02-.62-.26-.62-.55v-.07l.64-5.92c.07-.72,.72-1.19,1.46-1.19h.14m9.98-8.7h-5.42c-2.5,0-4.62,2.1-4.62,4.6v.11h-.08c-2.82,0-5.16,2.06-5.44,4.79l-.64,5.89-.02,.22v.29c0,2.38,1.91,4.38,4.36,4.54l2.88,.2c-.18,.26-.37,.53-.56,.78l-.06,.08-.06,.08c-.2,.3-.81,1.22-.81,2.55,0,1.43,.77,3.27,2.93,4.14l.1,.04,.1,.03,3,1.03c.69,.25,1.28,.28,1.66,.28,1.18,0,2.38-.42,3.3-1.16l.14-.11,.13-.12c7.48-7.13,9.12-14.08,9.12-16.16,0-3.06-2.25-5.61-5.37-6.23v-1.27c0-2.53-2.08-4.6-4.64-4.6h0Z" style="fill:#f7f8f8;"/></g><g><path d="M392.5,52.6c-1.27,0-2.32-.97-2.44-2.26l-.2-2.92v-.07c0-1.6,1.14-2.42,2.21-2.5l2.16-.1v-1.45l-1.05-.02h-.08c-1.28-.14-2.25-1.19-2.25-2.45l.02-2.94v-.08c.12-1.3,1.19-2.28,2.5-2.28l10.17,.17h.07c1.32,.12,2.31,1.19,2.31,2.5l-.05,2.83c0,1.32-1.1,2.42-2.45,2.42l-.96-.02v.92l2.27-.11c1.22,0,2.53,.95,2.6,2.37l.22,2.8v.08c0,1.38-1.11,2.5-2.48,2.5l-12.46,.6h-.09Z" style="fill:#4eabe6;"/><path d="M393.35,37.54l10.07,.17c.29,.02,.48,.24,.48,.5l-.05,2.79c0,.24-.21,.45-.45,.45h-.05l-2.91-.05v5.06l4.27-.22c.24,0,.6,.19,.6,.48l.21,2.77c0,.29-.21,.5-.48,.5l-12.51,.6h-.05c-.24,0-.43-.21-.45-.45l-.19-2.79c0-.21,.05-.48,.36-.5l4.01-.19v-5.32l-2.94-.05c-.24-.02-.45-.22-.45-.45v-.05l.02-2.79c.02-.26,.24-.45,.5-.45m.03-4h-.03c-2.35,0-4.27,1.76-4.49,4.09v.16s-.02,.16-.02,.16l-.02,2.79v.02s0,.06,0,.06c0,1.03,.35,1.99,.95,2.75-1.19,.79-1.93,2.16-1.93,3.77v.27s.2,2.79,.2,2.79v.06s.01,.06,.01,.06c.23,2.31,2.14,4.06,4.43,4.06h.24s12.46-.6,12.46-.6c2.4-.08,4.33-2.07,4.33-4.5v-.31s-.22-2.7-.22-2.7c-.08-1.42-.83-2.66-1.96-3.43,.32-.6,.5-1.29,.51-2.01l.05-2.78v-.03s0-.03,0-.03c0-2.36-1.78-4.29-4.14-4.49h-.14s-.14-.01-.14-.01l-10.07-.17h-.03Z" style="fill:#f7f8f8;"/></g><g><path d="M418.85,63.16c-.47,0-.92-.1-1.33-.31l-2.94-1.42c-.89-.4-1.46-1.23-1.46-2.21,0-.47,.14-.95,.41-1.42,1.41-2.35,2.75-5.46,3.56-7.58l-7.65,.76h-.1c-1.34,0-2.4-.98-2.52-2.28l-.37-4.1v-.09c0-1.31,.99-2.39,2.26-2.52l11.09-.97-.04-.16c-.04-.17-.09-.4-.09-.7,0-.93,.55-2.12,2.1-2.4l1.97-.25h.12c.55,0,1.05,.16,1.48,.43l.05-.04c.29-.23,.83-.53,1.57-.53,.87,0,1.48,.44,1.69,.59l.1,.07,1.38,1.26,.09,.07c.59,.49,.91,1.16,.91,1.9,0,.47-.14,1.16-.82,1.84l-.1,.09-1.31,1.15c-.14,.11-.27,.21-.41,.29,.03,.21,.05,.42,.05,.64,0,5.66-2.67,11.67-7.52,16.94-.51,.58-1.33,.93-2.19,.93Z" style="fill:#4eabe6;"/><path d="M426.98,39.39c.19,0,.36,.1,.52,.21l1.38,1.26,.07,.05c.14,.12,.19,.24,.19,.36,0,.14-.09,.29-.24,.43l-1.31,1.15c-.12,.1-.24,.14-.33,.14-.17,0-.31-.1-.43-.21l-1.53-1.65c-.12-.12-.17-.24-.17-.33,0-.17,.17-.29,.26-.36l1.22-.93c.12-.1,.24-.12,.36-.12m-3.03,.14c.33,0,.57,.29,.64,.57l.41,1.79c.02,.07,.02,.14,.02,.22,0,.26-.17,.41-.57,.45l-1.48,.1h-.17c-.33,0-.5-.12-.57-.36l-.5-1.84c-.02-.12-.05-.19-.05-.29,0-.29,.19-.38,.45-.43l1.74-.22h.07m-.17,3.17c1.1,0,2.77,.91,2.77,2.58,0,5.7-3.01,11.26-7.02,15.61-.1,.12-.38,.26-.69,.26-.14,0-.29-.02-.43-.1l-2.96-1.43c-.22-.1-.33-.21-.33-.41,0-.12,.05-.26,.14-.43,2.39-3.99,4.58-10.05,4.58-10.52,0-.21-.12-.29-.33-.29h-.14l-10.02,1h-.05c-.26,0-.45-.19-.48-.45l-.36-4.01v-.05c0-.24,.22-.45,.45-.48l14.75-1.29h.12m3.2-7.32c-.6,0-1.19,.11-1.73,.33-.42-.12-.85-.19-1.3-.19h-.32l-.24,.03-1.74,.22h-.11s-.11,.03-.11,.03c-1.9,.34-3.27,1.66-3.64,3.39l-9.22,.81c-2.32,.23-4.11,2.19-4.11,4.46v.18l.02,.23,.36,4.01c.21,2.34,2.13,4.1,4.46,4.1h.2l.25-.02,4.22-.42c-.64,1.43-1.37,2.94-2.13,4.2l-.02,.03-.02,.03c-.45,.78-.67,1.59-.67,2.42,0,1.74,1.01,3.27,2.63,4.02l2.91,1.41c.68,.33,1.41,.5,2.19,.5,1.43,0,2.78-.59,3.67-1.59,5.1-5.54,7.94-11.91,8.03-17.97l.99-.87,.1-.09,.1-.1c1.17-1.17,1.41-2.41,1.41-3.26,0-1.32-.6-2.57-1.64-3.43l-.13-.11-1.18-1.08-.18-.16-.2-.14c-.89-.64-1.85-.96-2.85-.96h0Z" style="fill:#f7f8f8;"/></g></g><g><g><path d="M250.41,196.93c-.28,0-.52-.11-.73-.23l-2.02-1.14c-.33-.18-.51-.48-.51-.84,0-.34,.19-.65,.29-.8,.99-1.44,2.04-4.35,2.43-5.86,.09-.48,.5-.83,1.01-.83,.08,0,.21,0,.34,.04l3.18,.72c.32,.07,.54,.21,.68,.36,.01-.06,.03-.12,.05-.18,.27-.88,.37-1.31,.42-1.52l-8.19-.77c-.49-.09-.82-.46-.82-.9l.28-3.03c.04-.46,.43-.82,.88-.82l11.82,.95c1.19,.08,2.46,.91,2.46,2.29,0,1.27-.83,3.88-2.69,5.72-.07,.09-.36,.38-.83,.38-.1,0-.27,0-.45-.09-1.53-.51-2.31-.76-2.67-1.07-.42,3.24-3.47,7.6-4.93,7.6Z" style="fill:#2ea7e0;"/><path d="M247.74,181.65l11.75,.95c.81,.06,1.99,.6,1.99,1.79,0,1.06-.75,3.59-2.54,5.36-.07,.09-.24,.24-.48,.24-.07,0-.15,0-.22-.04-2.25-.75-2.69-.9-2.69-1.3,0-.11,.02-.2,.06-.31,.48-1.57,.48-1.79,.48-1.85,0-.2-.11-.27-.37-.33l-8.31-.77c-.2-.04-.37-.2-.37-.4v-.04l.27-2.95c.02-.2,.18-.37,.38-.37h.04m3.15,6.09c.06,0,.13,0,.18,.02l3.22,.73c.4,.09,.57,.29,.57,.59v.09c-.37,3.27-3.42,7.26-4.45,7.26-.15,0-.29-.06-.49-.17l-2.01-1.13c-.2-.11-.26-.26-.26-.4,0-.18,.11-.38,.2-.51,1.01-1.46,2.09-4.41,2.51-6.02,.05-.27,.26-.46,.53-.46m-3.11-7.09h-.08c-.71,0-1.31,.56-1.38,1.27l-.27,2.94v.05s0,.05,0,.05c0,.72,.5,1.3,1.19,1.42h.04s.04,.01,.04,.01l7.61,.7c-.04,.14-.08,.3-.14,.5-.09-.03-.18-.06-.28-.08l-3.19-.73c-.18-.05-.34-.05-.43-.05-.73,0-1.34,.5-1.5,1.23-.4,1.54-1.44,4.35-2.36,5.69-.17,.23-.38,.62-.38,1.08,0,.54,.28,1.01,.78,1.28l2,1.13c.27,.15,.59,.29,.98,.29,1.71,0,4.56-4.07,5.3-7.33,.51,.23,1.22,.47,2.17,.78,.25,.1,.47,.1,.58,.1,.46,0,.9-.2,1.21-.56,1.94-1.94,2.81-4.69,2.81-6.04,0-1.68-1.51-2.69-2.93-2.79l-11.73-.95h-.04Z" style="fill:#f7f8f8;"/></g><g><path d="M269.13,197.1c-.49,0-.87-.37-.87-.85v-7.09c-2.41,.83-4.15,1.2-4.44,1.2-.4,0-.72-.22-.84-.58l-1.07-2.72c-.04-.11-.07-.2-.07-.33,0-.35,.21-.66,.53-.79,3.06-1.19,7.14-3.21,10.12-4.69l1.64-.81c.14-.05,.25-.09,.38-.09,.31,0,.72,.15,.91,.47l1.92,3.23c.05,.09,.11,.23,.11,.4,0,.34-.19,.68-.47,.86-1.02,.59-2.48,1.31-4.08,2.01,.43,.04,.76,.41,.76,.86v8.05c0,.48-.37,.85-.85,.85h-3.68Z" style="fill:#2ea7e0;"/><path d="M274.51,180.86c.18,0,.4,.09,.48,.22l1.92,3.24s.04,.09,.04,.15c0,.16-.09,.35-.24,.44-1.45,.84-3.84,1.96-6.31,2.93h2.42c.2,0,.35,.16,.35,.37v8.05c0,.2-.15,.35-.35,.35h-3.68c-.2,0-.37-.15-.37-.35v-7.8c-2.73,.99-4.72,1.41-4.94,1.41-.16,0-.31-.07-.37-.24l-1.08-2.74c-.02-.06-.04-.09-.04-.15,0-.15,.09-.28,.22-.33,3.68-1.43,8.8-4.04,11.78-5.51,.06-.02,.11-.04,.16-.04m0-1c-.21,0-.37,.05-.46,.08l-.07,.02-.08,.03c-.49,.24-1.04,.51-1.63,.8-2.97,1.47-7.04,3.49-10.08,4.67-.53,.22-.86,.71-.86,1.26,0,.22,.06,.37,.08,.45v.02s.02,.05,.02,.05l1.07,2.73c.2,.54,.7,.89,1.3,.89,.35,0,1.91-.34,3.94-1.01v6.39c0,.74,.61,1.35,1.37,1.35h3.68c.76,0,1.35-.59,1.35-1.35v-8.05c0-.29-.09-.55-.24-.77,1.29-.59,2.44-1.16,3.29-1.66,.46-.29,.73-.79,.73-1.3,0-.26-.08-.46-.14-.59l-.02-.03-.02-.03-1.92-3.24c-.28-.49-.87-.71-1.34-.71h0Z" style="fill:#f7f8f8;"/></g><g><path d="M289.62,196.53l-7.45-.37c-3.33-.18-3.71-2.17-3.71-3.65l.15-10.22c.04-.6,.38-.93,.94-.93l3.46,.02c.58,0,.95,.38,.95,.96-.03,.84-.05,1.83-.06,2.87,.95-.29,2.75-.86,3.86-1.23-.14-.37-.21-.76-.21-1.17,0-1.85,1.5-3.35,3.35-3.35s3.35,1.5,3.35,3.35-1.5,3.35-3.35,3.35c-.05,0-.1,0-.14,0l.33,.75c.09,.17,.13,.35,.13,.53,0,.35-.19,.64-.52,.79-2.49,1.23-5.99,1.51-6.02,1.51-.41,0-.7-.15-.88-.46-.02,1.02-.04,1.99-.04,2.3l6.38,.25c.47,0,.96,.33,.96,1.07v2.42c0,.73-.55,1.21-1.38,1.21h-.09Zm1.28-14.22c-.27,0-.51,.23-.51,.51s.23,.51,.51,.51,.51-.23,.51-.51-.23-.51-.51-.51Z" style="fill:#2ea7e0;"/><path d="M290.9,179.97c1.57,0,2.85,1.28,2.85,2.85s-1.28,2.85-2.85,2.85c-.35,0-.68-.05-.99-.18l.71,1.63c.06,.11,.09,.22,.09,.33,0,.13-.06,.26-.22,.33-2.34,1.15-5.71,1.46-5.82,1.46-.29,0-.42-.09-.51-.35l-.8-2.36c-.02,.88-.11,4.39-.11,5.05,0,.46,.29,.53,.53,.53l6.33,.22c.27,0,.48,.16,.48,.57v2.42c0,.44-.33,.71-.88,.71h-.09l-7.43-.37c-2.65-.15-3.24-1.43-3.24-3.15v-.17l.15-10.04c.02-.31,.15-.44,.44-.44l3.46,.02c.29,0,.46,.15,.46,.46-.04,1.01-.05,2.27-.07,3.55,.06-.04,.13-.06,.22-.07,.9-.26,3.77-1.17,4.85-1.54-.26-.42-.4-.93-.4-1.46,0-1.57,1.28-2.85,2.85-2.85m0,3.86c.55,0,1.01-.46,1.01-1.01s-.46-1.01-1.01-1.01-1.01,.46-1.01,1.01,.46,1.01,1.01,1.01m0-4.86c-2.13,0-3.85,1.73-3.85,3.85,0,.29,.03,.57,.09,.84-.84,.27-1.91,.61-2.74,.87,.01-.79,.03-1.52,.05-2.15,0-.89-.6-1.49-1.46-1.49l-3.45-.02c-.83,0-1.39,.54-1.44,1.38l-.15,10.09v.18c0,2.63,1.37,3.99,4.18,4.15l7.43,.37h.14c1.11,0,1.88-.7,1.88-1.71v-2.42c0-.92-.61-1.57-1.48-1.57l-5.86-.2c0-.25,.01-.57,.02-.93,.12,.03,.26,.04,.4,.04,.3,0,3.81-.36,6.26-1.57,.47-.21,.78-.68,.78-1.23,0-.25-.06-.5-.19-.75l-.03-.07c1.84-.29,3.25-1.89,3.25-3.81,0-2.12-1.73-3.85-3.85-3.85h0Z" style="fill:#f7f8f8;"/></g><g><path d="M293.23,191.1c-.45,0-.96-.38-.96-.92v-3.33c0-.53,.5-.9,.94-.9l12.42,.02c.44,0,.94,.38,.94,.92v3.31c0,.52-.5,.88-.94,.88l-12.4,.02h0Z" style="fill:#2ea7e0;"/><path d="M293.21,186.44l12.42,.02c.2,0,.44,.18,.44,.42v3.31c0,.22-.24,.38-.44,.38l-12.41,.02c-.2,0-.46-.18-.46-.42v-3.33c0-.22,.24-.4,.44-.4m0-1h0c-.78,0-1.44,.64-1.44,1.4v3.33c0,.85,.75,1.42,1.46,1.42l12.41-.02c.78,0,1.44-.63,1.44-1.38v-3.31c0-.77-.66-1.42-1.44-1.42l-12.42-.02h0Z" style="fill:#f7f8f8;"/></g><g><path d="M308.87,195.2c-.77-.03-1.33-.58-1.33-1.3l.18-9.58c0-.88,.61-1.5,1.49-1.5l9.23,.18c1.94,.05,3.14,1.18,3.14,2.95v.2l-.4,7.97c-.05,.98-.79,1.43-1.49,1.43l-10.83-.35Zm7.24-4.26l.11-3.05c0-.32-.12-.32-.2-.32l-3.55-.13-.07,3.37,3.71,.13Z" style="fill:#2ea7e0;"/><path d="M309.25,183.31l9.19,.18c1.54,.04,2.65,.82,2.65,2.45v.2l-.4,7.94c-.04,.69-.53,.95-.99,.95h-.06l-10.76-.35c-.48-.02-.84-.33-.84-.8v-.04l.18-9.53c0-.57,.35-1.01,.99-1.01h.04m7.34,8.14l.13-3.55v-.06c0-.51-.29-.79-.7-.79l-4.04-.15-.09,4.37,4.7,.16m-7.33-9.14h-.05c-1.15,0-1.99,.84-1.99,2.01l-.18,9.51h0v.06c0,.99,.78,1.77,1.8,1.8l10.76,.35h.09c1.11,0,1.93-.78,1.99-1.9l.4-7.94v-.03s0-.03,0-.03v-.2c0-2.05-1.42-3.4-3.63-3.45l-9.19-.18h0Zm3.65,8.01l.05-2.37,2.76,.1-.09,2.37-2.72-.09h0Z" style="fill:#f7f8f8;"/></g><g><path d="M328.73,197.35c-.3,0-.58-.11-.8-.31l-1.87-1.63c-.23-.2-.37-.49-.37-.78,0-.34,.19-.64,.5-.79,1.77-.89,3.11-3.89,3.2-5.53l-1.97-.1c-.42,.87-.68,1.26-1.29,1.26h-.13s-2.54-.28-2.54-.28c-.58-.04-.85-.46-.85-.84,0-.13,.03-.23,.04-.3,.42-1.53,.91-5.06,1.04-6.48,.04-.45,.36-.93,.97-.93h.13c.45,.07,.96,.12,1.47,.16,.64,.06,1.3,.12,1.82,.21,.61,.09,.92,.47,.92,1.13,0,.41-.04,.87-.13,1.41l7.85,.36c.48,.04,.97,.44,.97,.96l-.18,2.9c-.04,.49-.44,.85-.94,.85l-1.96-.09c.18,.2,.26,.45,.26,.67v.12c-.7,5.51-4.94,8.01-6.14,8.01Z" style="fill:#2ea7e0;"/><path d="M324.7,181.16c1.01,.15,2.36,.2,3.28,.37,.37,.05,.51,.22,.51,.64,0,.59-.09,1.23-.22,1.88l8.42,.38c.22,.02,.49,.22,.49,.46l-.18,2.87c-.02,.24-.22,.38-.44,.38l-5.73-.27c.99,.22,2.42,.6,3.11,.84,.29,.09,.42,.33,.42,.51v.06c-.66,5.21-4.7,7.57-5.64,7.57-.16,0-.33-.06-.48-.18l-1.87-1.63c-.13-.11-.2-.26-.2-.4s.07-.27,.22-.35c1.99-1.01,3.48-4.32,3.48-6.13,0-.13,.06-.24,.18-.31l-2.96-.15c-.51,1.06-.64,1.28-.99,1.28h-.07l-2.54-.27c-.29-.02-.4-.18-.4-.35,0-.07,.02-.13,.04-.2,.42-1.54,.91-5.12,1.04-6.53,.02-.2,.15-.48,.48-.48h.06m.07-1h-.13c-.78,0-1.4,.58-1.47,1.39-.12,1.37-.62,4.91-1.01,6.36-.03,.13-.07,.27-.07,.47,0,.63,.46,1.29,1.34,1.35l2.5,.27h.05s.05,0,.05,0h.07c.81,0,1.19-.48,1.59-1.25l1.11,.05c-.28,1.57-1.46,3.9-2.87,4.61-.47,.24-.77,.71-.77,1.24,0,.44,.2,.87,.55,1.16l1.86,1.62c.32,.28,.71,.43,1.13,.43,1.61,0,5.93-2.96,6.63-8.45v-.06s0-.06,0-.06v-.06s0-.09,0-.14l1.15,.06s0,0,0,0c.81,0,1.42-.56,1.48-1.31l.18-2.89v-.03s0-.03,0-.03c0-.82-.73-1.39-1.41-1.45l-7.34-.34c.04-.34,.06-.65,.06-.94,0-.91-.5-1.5-1.37-1.63-.51-.09-1.19-.15-1.83-.21-.5-.05-1.02-.09-1.44-.15h-.07Z" style="fill:#f7f8f8;"/></g><g><path d="M339.37,191.1c-.45,0-.96-.38-.96-.92v-3.33c0-.53,.5-.9,.94-.9l12.42,.02c.44,0,.94,.38,.94,.92v3.31c0,.52-.49,.88-.94,.88l-12.41,.02h0Z" style="fill:#2ea7e0;"/><path d="M339.35,186.44l12.42,.02c.2,0,.44,.18,.44,.42v3.31c0,.22-.24,.38-.44,.38l-12.41,.02c-.2,0-.46-.18-.46-.42v-3.33c0-.22,.24-.4,.44-.4m0-1h0c-.78,0-1.44,.64-1.44,1.4v3.33c0,.85,.75,1.42,1.46,1.42l12.41-.02c.78,0,1.44-.63,1.44-1.38v-3.31c0-.77-.66-1.42-1.44-1.42l-12.42-.02h0Z" style="fill:#f7f8f8;"/></g><g><path d="M358.53,197.06c-.31,0-.6-.17-.76-.45l-1.74-3.08c-.07-.1-.12-.25-.12-.41,0-.31,.17-.59,.47-.76,3.01-1.18,8.66-3.83,10.82-5.19l.05-.03,.06-.02c.08-.03,.19-.06,.32-.06,.31,0,.6,.17,.76,.45l1.54,2.73,.03,.07c.02,.06,.05,.15,.05,.28,0,.29-.15,.57-.41,.75-3.27,2.6-7,4.56-10.76,5.65-.07,.02-.18,.06-.3,.06Zm-2.38-6.22c-.4,0-.59-.27-.69-.41-2.28-3.45-2.28-3.56-2.28-3.9s.19-.61,.49-.71l2.52-1.07c.19-.08,.41-.13,.6-.13,.24,0,.47,.07,.68,.22,.06,.05,2.83,2.42,2.83,3.68,0,.35-.19,.64-.53,.81l-3.04,1.35c-.17,.08-.36,.15-.57,.15Zm4.99-3.9c-.29,0-.5-.17-.63-.28-3.13-2.63-3.24-2.82-3.24-3.29,0-.25,.1-.46,.29-.6l2.07-1.69c.24-.19,.5-.35,.83-.35,.48,0,4.18,1.83,4.18,3.1,0,.25-.13,.49-.35,.68l-2.45,2.1c-.18,.16-.42,.34-.71,.34Z" style="fill:#2ea7e0;"/><path d="M360.47,181.23c.4,0,3.68,1.77,3.68,2.6,0,.09-.06,.2-.16,.29l-2.45,2.11c-.18,.16-.29,.22-.38,.22-.11,0-.2-.07-.31-.16-2.85-2.4-3.06-2.67-3.06-2.91,0-.07,.02-.15,.09-.2l2.09-1.7c.16-.13,.33-.24,.51-.24m-3.68,3.9c.13,0,.26,.04,.38,.13,.68,.57,2.62,2.47,2.62,3.27,0,.15-.07,.27-.26,.37l-3.02,1.33c-.16,.07-.27,.11-.37,.11-.16,0-.22-.11-.33-.26-2.01-3.06-2.14-3.35-2.14-3.55,0-.11,.04-.2,.15-.24l2.56-1.08c.13-.06,.27-.09,.4-.09m10.83,2.43c.13,0,.26,.07,.33,.2l1.52,2.69c.02,.06,.04,.09,.04,.15,0,.13-.07,.26-.2,.35-3.27,2.6-6.97,4.52-10.61,5.58-.06,.02-.11,.04-.16,.04-.13,0-.26-.07-.33-.2l-1.74-3.08c-.04-.05-.05-.11-.05-.16,0-.15,.09-.26,.22-.33,2.87-1.12,8.56-3.77,10.83-5.2,.06-.02,.11-.04,.17-.04m-7.15-7.33c-.55,0-.95,.31-1.13,.45l-2.1,1.72c-.28,.21-.46,.57-.46,.98,0,.27,.04,.48,.24,.77-.07-.01-.15-.02-.23-.02-.33,0-.61,.09-.8,.17l-2.53,1.07c-.48,.18-.78,.63-.78,1.17s.06,.7,2.31,4.1l.02,.03,.02,.02,.03,.04c.12,.17,.45,.61,1.1,.61,.3,0,.55-.1,.78-.2l3.01-1.33h.02s.02-.02,.02-.02c.5-.26,.8-.73,.8-1.26,0-.44-.24-.95-.58-1.46,.17,.14,.48,.38,.93,.38s.81-.25,1.05-.47l2.44-2.09c.32-.27,.51-.65,.51-1.05,0-1.64-4.02-3.6-4.68-3.6h0Zm7.15,6.33c-.21,0-.38,.05-.46,.08l-.12,.04-.12,.07c-2.13,1.34-7.74,3.98-10.66,5.11l-.07,.03-.07,.04c-.45,.26-.72,.71-.72,1.2,0,.24,.07,.47,.2,.68l1.72,3.05c.25,.44,.71,.71,1.2,.71,.21,0,.37-.05,.46-.08,3.8-1.11,7.58-3.09,10.92-5.74,.37-.28,.6-.7,.6-1.14,0-.22-.06-.38-.08-.45l-.03-.08-.05-.1-1.52-2.69c-.25-.44-.71-.71-1.2-.71h0Z" style="fill:#f7f8f8;"/></g><g><path d="M371.18,196.35c-.41,0-.78-.35-.83-.78l-.15-2.07c0-.57,.31-.9,.75-.9l1.69-.07-.94,.02c-.44,0-.82-.35-.86-.81l-.08-1.96c0-.55,.31-.88,.76-.88l2.73-.08-3.34-.27c-.44-.04-.77-.4-.77-.83l.17-2.22c.05-.44,.41-.77,.83-.77l7.6,.59c1.13,.09,2.02,.97,2.02,2,0,.53-1.16,6.81-1.29,7.52-.11,.66-.64,1.12-1.33,1.18l-6.91,.33h-.05Zm4.4-7.42c.12,.07,.23,.16,.31,.27,.01-.09,.02-.17,.03-.25l-.34-.03Z" style="fill:#2ea7e0;"/><path d="M371.18,185.24l7.52,.59c.88,.07,1.56,.73,1.56,1.5,0,.38-.82,4.96-1.28,7.43-.07,.42-.4,.73-.88,.77l-6.88,.33h-.04c-.16,0-.31-.17-.33-.33l-.15-2.05v-.06c0-.15,.06-.31,.26-.31l4.59-.18c.24-.04,.29-.09,.31-.24,.07-.4,.59-3.73,.59-3.97,0-.18-.06-.22-.11-.22l-5.38-.44c-.18-.02-.31-.17-.31-.33v-.04l.17-2.14c.02-.16,.16-.31,.33-.31h.04m3.92,4.06c.16,0,.42,.13,.44,.35l.07,1.96v.04c0,.17-.16,.31-.35,.33l-3.55,.09c-.18,0-.35-.15-.37-.35l-.07-1.94v-.05c0-.15,.05-.31,.26-.31l3.57-.11m-3.88-5.06h-.08c-.67,0-1.25,.53-1.32,1.2l-.17,2.17v.04s0,.04,0,.04c0,.59,.34,1.07,.84,1.27-.14,.21-.22,.47-.22,.76v.05l.07,1.98v.03s0,.03,0,.03c.01,.14,.05,.28,.1,.4-.44,.19-.74,.65-.74,1.21v.13s.15,2.05,.15,2.05c.08,.72,.66,1.26,1.33,1.26h.08s6.88-.33,6.88-.33c.94-.07,1.66-.71,1.82-1.6,.3-1.63,1.3-7.04,1.3-7.6,0-1.28-1.09-2.38-2.47-2.5l-7.53-.59h-.04Z" style="fill:#f7f8f8;"/></g><g><path d="M385.85,196.77c-.31,0-.6-.17-.76-.45l-1.81-3.24c-.07-.17-.1-.28-.1-.41,0-.31,.17-.6,.45-.76,3.01-1.18,8.47-3.74,10.65-5.1l.05-.03,.06-.02c.08-.03,.18-.06,.3-.06,.31,0,.6,.17,.76,.45l1.6,2.86c.1,.15,.1,.32,.1,.39,0,.27-.13,.54-.36,.73-3.32,2.62-6.89,4.5-10.63,5.59-.07,.02-.17,.06-.3,.06Zm-.46-8.31c-.34,0-.54-.2-.7-.37-3.07-3.13-3.26-3.32-3.26-3.85,0-.27,.13-.5,.37-.65l2.44-1.62c.25-.19,.53-.3,.81-.3,.68,0,4.36,2.34,4.36,3.68,0,.31-.14,.57-.4,.77l-2.88,2.04c-.2,.14-.44,.29-.73,.29Z" style="fill:#2ea7e0;"/><path d="M385.04,182.18c.53,0,3.86,2.23,3.86,3.18,0,.15-.06,.26-.2,.37l-2.87,2.03c-.2,.15-.33,.2-.44,.2-.13,0-.22-.09-.35-.22-2.74-2.8-3.11-3.18-3.11-3.5,0-.09,.04-.16,.13-.22l2.45-1.63c.16-.13,.35-.22,.53-.22m9.64,5.01c.13,0,.26,.07,.33,.2l1.59,2.85c.04,.06,.04,.11,.04,.15,0,.13-.07,.26-.18,.35-3.29,2.6-6.81,4.43-10.45,5.49-.06,.02-.11,.04-.16,.04-.13,0-.26-.07-.33-.2l-1.81-3.24c-.02-.05-.04-.11-.04-.16,0-.13,.07-.26,.2-.33,2.87-1.12,8.38-3.68,10.67-5.11,.06-.02,.11-.04,.15-.04m-9.64-6.01c-.38,0-.75,.14-1.11,.4l-2.42,1.61c-.35,.21-.57,.6-.57,1.05,0,.73,.13,.86,3.4,4.2,.19,.19,.52,.52,1.06,.52,.43,0,.78-.21,1.03-.4l2.86-2.02c.52-.39,.62-.85,.62-1.18,0-1.68-3.89-4.18-4.86-4.18h0Zm9.64,5.01c-.19,0-.35,.05-.45,.08l-.12,.04-.11,.07c-2.16,1.34-7.57,3.89-10.5,5.02l-.07,.03-.06,.04c-.44,.25-.71,.71-.71,1.2,0,.2,.05,.36,.09,.49l.03,.08,.04,.08,1.81,3.24c.25,.44,.71,.71,1.2,.71,.21,0,.38-.05,.47-.08,3.77-1.1,7.4-3.01,10.76-5.66,.37-.3,.56-.71,.56-1.13,0-.09,0-.36-.17-.65l-1.58-2.83c-.26-.44-.71-.71-1.2-.71h0Z" style="fill:#f7f8f8;"/></g></g><g><g><path d="M185.78,46.92c-1.52,0-13.72-2.08-16.41-3.84-.54-.33-.98-.91-1.15-1.53l-.45-1.75c-.26-.94-.08-1.74,.54-2.36l11.32-10.24,.05-.04c.33-.25,.62-.4,.92-.49,.16-.04,.33-.07,.51-.07,.34,0,.98,.1,1.51,.76,.47,.49,1.68,1.8,1.87,2.5,.21,.77-.02,1.6-.59,2.12l-7.33,6.64c2.13,.45,5.33,1.07,9.34,1.82l.34,.06c.82,.15,1.41,.68,1.63,1.45,.08,.28,.08,.52,.08,.69v.09s0,.18,0,.18l-.21,1.98c-.15,1.39-.98,1.82-1.47,1.95l-.2,.06h-.3Z" style="fill:#2ea7e0;"/><path d="M181.11,28.11c.13,0,.25,.08,.35,.21,.11,.09,1.51,1.66,1.59,1.96,.07,.26-.02,.49-.15,.6l-9.46,8.57c2.02,.59,12.18,2.47,12.52,2.53,.26,.05,.41,.17,.47,.39,.03,.11,.03,.23,.03,.39l-.21,1.98c-.05,.41-.15,.6-.38,.67-.02,0-.05,0-.1,0-1.32,0-13.41-2.1-15.62-3.61-.19-.11-.42-.36-.51-.66l-.44-1.72c-.09-.33-.14-.64,.14-.92l11.22-10.15c.17-.13,.3-.21,.42-.24,.04-.01,.07-.02,.11-.02m0-3c-.31,0-.62,.04-.92,.13-.46,.13-.93,.37-1.41,.73l-.1,.08-.1,.09-11.22,10.15-.05,.04-.05,.05c-.58,.57-1.47,1.83-.94,3.82l.44,1.7v.03s.02,.03,.02,.03c.28,.99,.95,1.87,1.81,2.4,3.18,2.02,15.7,4.06,17.2,4.06,.32,0,.62-.04,.91-.12,.68-.19,2.3-.89,2.55-3.23l.21-1.99,.02-.19v-.19s0-.05,0-.05c0-.22,0-.62-.14-1.1-.37-1.3-1.41-2.25-2.79-2.51l-.31-.06c-2.7-.5-4.8-.91-6.43-1.23l5.13-4.65c1-.91,1.4-2.3,1.03-3.63-.29-1.05-1.59-2.47-2.2-3.11-.67-.8-1.62-1.26-2.63-1.26h0Z" style="fill:#f7f8f8;"/></g><g><path d="M192.86,47.24c-.13,0-.53,0-1.93-.17l-.1-.02c-.93-.18-1.66-.8-1.89-1.63-.1-.33-.08-.61-.07-.75v-.16s4.27-33.32,4.27-33.32c.12-.88,.75-1.6,1.61-1.84,.17-.05,.35-.07,.57-.07,.46,0,1.15,.1,1.82,.21l.25,.04c.87,.07,1.56,.65,1.81,1.54,.26,.93-4.08,33.91-4.13,34.23-.07,.84-.71,1.61-1.62,1.86-.17,.05-.35,.07-.58,.07Z" style="fill:#2ea7e0;"/><path d="M195.33,10.79c.51,0,1.72,.22,1.9,.23,.33,.03,.47,.23,.53,.45,.11,.41-4.07,32.95-4.17,33.62-.03,.33-.25,.55-.55,.63-.03,0-.09,.01-.17,.01-.37,0-1.17-.09-1.75-.15-.34-.06-.64-.26-.72-.56-.03-.11-.02-.2,0-.32l4.25-33.32c.04-.29,.26-.51,.52-.58,.04-.01,.1-.02,.17-.02m0-3c-.36,0-.68,.04-.99,.13-1.42,.39-2.48,1.6-2.68,3.07l-4.26,33.34v.12s-.02,.12-.02,.12c-.02,.21-.05,.69,.12,1.29,.38,1.36,1.55,2.4,3.05,2.68l.1,.02h.1c1.32,.17,1.82,.19,2.1,.19,.23,0,.59-.01,.99-.13,1.49-.42,2.54-1.65,2.71-3.16,.12-.91,1.17-9.08,2.16-16.89,2.15-17.05,2.14-17.1,1.92-17.89-.4-1.46-1.58-2.46-3.07-2.63l-.2-.03c-.76-.12-1.48-.22-2.05-.22h0Z" style="fill:#f7f8f8;"/></g><g><path d="M209.58,40.25c-1,0-1.56-.73-1.74-.97l-1.21-1.59c-.17-.24-.34-.52-.43-.85-.23-.81,.04-1.6,.74-2.17l.14-.13c3.05-2.73,5.47-4.94,7.06-6.43l-9.65-1.87c-.78-.12-1.41-.69-1.63-1.48-.04-.14-.14-.5-.07-.97,.03-.41,.12-.91,.21-1.39,.05-.28,.1-.55,.12-.76v-.11s.04-.1,.04-.1c.27-.96,.89-1.32,1.37-1.45,.19-.05,.4-.08,.62-.08,.16,0,.33,.01,.5,.05l14.87,2.84c.92,.17,1.52,.77,1.8,1.77l.48,1.7c.18,.66,.12,1.37-.17,1.91-1.14,2.24-10.79,11.52-12.49,11.99-.18,.05-.37,.08-.55,.08Z" style="fill:#2ea7e0;"/><path d="M205.14,21.4c.07,0,.15,0,.23,.02l14.86,2.84c.42,.08,.55,.37,.64,.7l.48,1.71c.08,.3,.05,.62-.05,.81-.95,2.07-10.63,10.98-11.56,11.24-.05,.01-.1,.02-.15,.02-.19,0-.35-.12-.56-.38l-1.21-1.58c-.07-.1-.15-.24-.18-.35-.06-.22,0-.4,.24-.59,.26-.23,7.97-7.11,9.35-8.66l-12.49-2.42c-.21-.02-.37-.18-.43-.4-.03-.11-.06-.22-.03-.39,.04-.57,.25-1.55,.33-2.13,.06-.22,.14-.36,.33-.41,.06-.02,.13-.03,.21-.03m0-3c-.35,0-.69,.05-1.01,.13-.57,.16-1.92,.72-2.42,2.5l-.06,.2-.03,.21c-.03,.19-.07,.44-.11,.69-.09,.5-.18,1.01-.22,1.48-.09,.68,.03,1.22,.13,1.57,.37,1.33,1.46,2.31,2.81,2.53l6.72,1.3c-1.29,1.18-2.91,2.64-4.9,4.43l-.14,.12c-1.12,.94-1.55,2.31-1.17,3.67,.15,.53,.41,.97,.6,1.24l.04,.06,.04,.06,1.21,1.58c1,1.3,2.15,1.57,2.94,1.57,.32,0,.65-.05,.96-.13,.56-.16,1.51-.42,7.03-5.65,5.32-5.04,6.16-6.61,6.42-7.15,.43-.86,.52-1.95,.25-2.94l-.48-1.71c-.58-2.09-2.11-2.67-2.97-2.84l-14.86-2.84c-.27-.05-.53-.08-.79-.08h0Z" style="fill:#f7f8f8;"/></g></g></g><g id="c"><path d="M199.58,93.31c1.18,.7,1.57,2.22,.87,3.4,0,0,0,0,0,0l-1.64,2.76,2.25-.57c3.98-1.02,8.03,1.39,9.05,5.37h0s3.68,14.42,3.68,14.42c1.02,3.98-1.39,8.03-5.37,9.05h0l-24.03,6.14c-3.98,1.02-8.03-1.39-9.05-5.37h0l-3.68-14.42c-1.02-3.98,1.39-8.03,5.37-9.05l2.24-.57-2.75-1.64c-1.17-.72-1.53-2.25-.81-3.41,.7-1.14,2.18-1.52,3.34-.85l6.4,3.8c.19,.11,.36,.25,.51,.4l6.18-1.58c.06-.21,.14-.4,.26-.59l3.79-6.4c.7-1.18,2.22-1.57,3.4-.87,0,0,0,0,0,0m2.71,10.41l-24.03,6.14c-1.26,.32-2.06,1.56-1.83,2.84l.04,.18,3.68,14.42c.32,1.27,1.57,2.05,2.84,1.83l.18-.04,24.03-6.14c1.26-.32,2.06-1.56,1.83-2.84l-.04-.18-3.68-14.42c-.34-1.33-1.69-2.13-3.02-1.79m-18,9.72c1.33-.34,2.68,.46,3.02,1.79l.61,2.4c.34,1.33-.46,2.68-1.79,3.02s-2.68-.46-3.02-1.79l-.61-2.4c-.34-1.33,.46-2.68,1.79-3.02m14.42-3.68c1.33-.34,2.68,.46,3.02,1.79l.61,2.4c.34,1.33-.46,2.68-1.79,3.02s-2.68-.46-3.02-1.79l-.61-2.4c-.34-1.33,.46-2.68,1.79-3.02" style="fill:#4eabe6;"/></g></svg>